<?xml version="1.0" encoding="UTF-8"?>
<svg version="1.1" xmlns="http://www.w3.org/2000/svg" width="48" height="48">
<path d="M0 0 C3.4765625 0.98046875 3.4765625 0.98046875 5.390625 3.3671875 C7.30616217 7.97687946 8.03870323 12.0055233 7.4765625 16.98046875 C5.9765625 20.48046875 5.9765625 20.48046875 4.4765625 22.98046875 C6.178125 23.19703125 6.178125 23.19703125 7.9140625 23.41796875 C11.4765625 23.98046875 11.4765625 23.98046875 12.4765625 24.98046875 C12.99124926 32.70077013 11.4115529 39.52845216 9.4765625 46.98046875 C6.14322917 46.98046875 2.80989583 46.98046875 -0.5234375 46.98046875 C-0.8534375 47.31046875 -1.1834375 47.64046875 -1.5234375 47.98046875 C-7.13030531 48.15846455 -12.51367329 47.82183144 -18.08203125 47.203125 C-21.5774333 46.88434433 -25.01569517 46.91551056 -28.5234375 46.98046875 C-31.58149449 40.86435476 -28.54176903 33.78243338 -26.7890625 27.67578125 C-25.5234375 24.98046875 -25.5234375 24.98046875 -23.3828125 24.09765625 C-22.76921875 24.05898438 -22.155625 24.0203125 -21.5234375 23.98046875 C-21.7090625 22.78421875 -21.8946875 21.58796875 -22.0859375 20.35546875 C-22.00944178 13.5254937 -18.68653204 7.21981624 -14.15136719 2.23144531 C-10.11189052 -0.87267563 -4.85074328 -0.41301619 0 0 Z " fill="#060708" transform="translate(31.5234375,0.01953125)"/>
<path d="M0 0 C4.29 0 8.58 0 13 0 C16.43799682 9.35135135 16.43799682 9.35135135 15 13 C12.29795132 17.47288284 9.47457554 22.07416606 4.1875 23.4375 C3.135625 23.623125 2.08375 23.80875 1 24 C-1.1385485 26.1385485 -1.42655063 27.13275314 -2 30 C-2.66 30 -3.32 30 -4 30 C-4.268125 28.865625 -4.53625 27.73125 -4.8125 26.5625 C-5.204375 25.386875 -5.59625 24.21125 -6 23 C-6.99 22.67 -7.98 22.34 -9 22 C-9.74632936 16.24260209 -9.03509357 13.50859849 -5.625 8.75 C-4.99851562 7.94046875 -4.37203125 7.1309375 -3.7265625 6.296875 C-1.76631169 3.83254895 -1.76631169 3.83254895 0 0 Z " fill="#509DF9" transform="translate(21,3)"/>
<path d="M0 0 C1.98 0 3.96 0 6 0 C8.45946923 5.25432063 9.90301833 10.30860098 11 16 C9.02 16 7.04 16 5 16 C5 15.34 5 14.68 5 14 C4.01 14 3.02 14 2 14 C2 14.66 2 15.32 2 16 C0.02 16 -1.96 16 -4 16 C-2.98408579 10.53135543 -1.92908943 5.23609987 0 0 Z " fill="#C9C9C9" transform="translate(8,27)"/>
<path d="M0 0 C0.33 0.99 0.66 1.98 1 3 C7.27 3 13.54 3 20 3 C17 8 17 8 13.4375 9.1875 C12.303125 9.455625 11.16875 9.72375 10 10 C7.8614515 12.1385485 7.57344937 13.13275314 7 16 C6.34 16 5.68 16 5 16 C4.731875 14.865625 4.46375 13.73125 4.1875 12.5625 C3.795625 11.386875 3.40375 10.21125 3 9 C2.01 8.67 1.02 8.34 0 8 C0 5.36 0 2.72 0 0 Z " fill="#338FFE" transform="translate(12,17)"/>
<path d="M0 0 C0.721875 0.268125 1.44375 0.53625 2.1875 0.8125 C2.1875 2.7925 2.1875 4.7725 2.1875 6.8125 C0.8675 6.8125 -0.4525 6.8125 -1.8125 6.8125 C-1.8125 8.1325 -1.8125 9.4525 -1.8125 10.8125 C-0.4925 10.8125 0.8275 10.8125 2.1875 10.8125 C2.1875 12.7925 2.1875 14.7725 2.1875 16.8125 C-4.1907235 17.29387536 -4.1907235 17.29387536 -6.75 15.3125 C-8.25510608 11.77107393 -8.60254663 8.54860835 -7.8125 4.8125 C-4.17613636 -0.27840909 -4.17613636 -0.27840909 0 0 Z " fill="#D4D4D4" transform="translate(27.8125,26.1875)"/>
<path d="M0 0 C3.3 0 6.6 0 10 0 C10 1.65 10 3.3 10 5 C9.34 5 8.68 5 8 5 C8 8.63 8 12.26 8 16 C6.02 16 4.04 16 2 16 C2 12.37 2 8.74 2 5 C1.34 5 0.68 5 0 5 C0 3.35 0 1.7 0 0 Z " fill="#BBBBBB" transform="translate(32,27)"/>
<path d="M0 0 C3.3 0 6.6 0 10 0 C10 1.65 10 3.3 10 5 C9.01 5 8.02 5 7 5 C7 5.66 7 6.32 7 7 C5.68 7 4.36 7 3 7 C3 6.34 3 5.68 3 5 C2.01 5 1.02 5 0 5 C0 3.35 0 1.7 0 0 Z " fill="#FDFDFD" transform="translate(32,27)"/>
<path d="M0 0 C0 1.98 0 3.96 0 6 C-3.3 6.33 -6.6 6.66 -10 7 C-9.67226629 3.96846314 -9.35865103 2.38426897 -7.25 0.125 C-4.40525065 -1.29737468 -2.98383376 -0.91172698 0 0 Z " fill="#F5F5F5" transform="translate(30,27)"/>
<path d="M0 0 C1.98 0 3.96 0 6 0 C7.4606285 2.64738916 8 3.89448334 8 7 C5.03 7 2.06 7 -1 7 C-0.67 4.69 -0.34 2.38 0 0 Z " fill="#F3F3F3" transform="translate(8,27)"/>
<path d="M0 0 C0.33 0 0.66 0 1 0 C1 2.31 1 4.62 1 7 C6.28 7 11.56 7 17 7 C17 7.33 17 7.66 17 8 C15.88625 8.28875 14.7725 8.5775 13.625 8.875 C9.99708908 9.69241329 9.99708908 9.69241329 8 12 C7.3574765 14.06874034 7.3574765 14.06874034 7 16 C6.34 16 5.68 16 5 16 C4.731875 14.865625 4.46375 13.73125 4.1875 12.5625 C3.795625 11.386875 3.40375 10.21125 3 9 C2.01 8.67 1.02 8.34 0 8 C0 5.36 0 2.72 0 0 Z " fill="#1169D3" transform="translate(12,17)"/>
<path d="M0 0 C0.598125 0.20625 1.19625 0.4125 1.8125 0.625 C2.1425 2.935 2.4725 5.245 2.8125 7.625 C3.4725 7.625 4.1325 7.625 4.8125 7.625 C4.915625 6.861875 5.01875 6.09875 5.125 5.3125 C5.85961194 2.44083516 6.4841065 1.39457906 8.8125 -0.375 C9.4725 -0.375 10.1325 -0.375 10.8125 -0.375 C10.8125 0.285 10.8125 0.945 10.8125 1.625 C10.173125 2.2025 9.53375 2.78 8.875 3.375 C6.36899582 6.10882274 6.14269491 7.99285602 5.8125 11.625 C5.4825 10.635 5.1525 9.645 4.8125 8.625 C3.8225 8.625 2.8325 8.625 1.8125 8.625 C1.1525 6.645 0.4925 4.665 -0.1875 2.625 C-1.8375 2.295 -3.4875 1.965 -5.1875 1.625 C-2.1875 -0.375 -2.1875 -0.375 0 0 Z " fill="#1C2734" transform="translate(14.1875,25.375)"/>
</svg>
