<?xml version="1.0" encoding="UTF-8"?>
<svg version="1.1" xmlns="http://www.w3.org/2000/svg" width="48" height="48">
<path d="M0 0 C8.26322841 -0.10286176 16.33929771 0.04287601 24.57421875 0.78125 C29.34743556 1.08603921 34.10385156 1.04600418 38.88452148 0.96289062 C40.58958494 0.94096868 42.29513318 0.9660723 44 1 C45.52271991 2.52271991 45.20581982 3.87935159 45.25 6 C45.21745357 11.06910681 43.85719523 15.32384773 42 20 C43.32 20.33 44.64 20.66 46 21 C46.46169599 28.72913288 45.34663092 35.61966337 43 43 C42 44 42 44 38.9453125 44.09765625 C37.68460938 44.08605469 36.42390625 44.07445312 35.125 44.0625 C33.86945312 44.05347656 32.61390625 44.04445312 31.3203125 44.03515625 C30.22460938 44.02355469 29.12890625 44.01195312 28 44 C27.01 44 26.02 44 25 44 C24.67 44.33 24.34 44.66 24 45 C22.14416777 45.01674294 20.28760637 44.96275607 18.43359375 44.87890625 C17.30888672 44.83056641 16.18417969 44.78222656 15.02539062 44.73242188 C13.24938477 44.64831055 13.24938477 44.64831055 11.4375 44.5625 C10.24962891 44.51029297 9.06175781 44.45808594 7.83789062 44.40429688 C4.89168934 44.2741434 1.94578724 44.1391636 -1 44 C-2.68486619 40.63026762 -2.14481557 36.82877418 -2.125 33.125 C-2.12234131 32.24473145 -2.11968262 31.36446289 -2.11694336 30.45751953 C-2.07118845 23.92325575 -1.8719381 17.40187383 -1.5625 10.875 C-1.52334473 10.01664551 -1.48418945 9.15829102 -1.44384766 8.27392578 C-1.12485375 2.2497075 -1.12485375 2.2497075 0 0 Z " fill="#0B0B08" transform="translate(2,3)"/>
<path d="M0 0 C0.72960937 0.0721875 1.45921875 0.144375 2.2109375 0.21875 C7.38376668 0.67855704 12.46787025 1.04421908 17.66015625 0.9609375 C18.45180176 0.94869141 19.24344727 0.93644531 20.05908203 0.92382812 C21.61638686 0.89185718 23.17349098 0.84678309 24.72998047 0.78710938 C29.60580194 0.68771306 32.71207381 1.40413977 37 4 C37 3.34 37 2.68 37 2 C38.32 2 39.64 2 41 2 C40.32327291 8.63192547 38.83234467 13.60777224 34.75 18.9375 C30.44744685 22.289997 24.60831797 21.30415768 19.4609375 21.078125 C16.63163817 21.0142582 14.6453984 21.11372439 12 22 C12 21.34 12 20.68 12 20 C11.39671875 20.09539063 10.7934375 20.19078125 10.171875 20.2890625 C8.97304688 20.45535156 8.97304688 20.45535156 7.75 20.625 C6.56664062 20.79902344 6.56664062 20.79902344 5.359375 20.9765625 C2.67847541 21.00319395 1.27305911 20.36592084 -1 19 C-1.09507063 12.56688704 -1.15316726 6.34241995 0 0 Z " fill="#FAEB6A" transform="translate(4,5)"/>
<path d="M0 0 C1.65 0 3.3 0 5 0 C5.33 0.99 5.66 1.98 6 3 C6.33 2.01 6.66 1.02 7 0 C8.32 0 9.64 0 11 0 C11.33 0.99 11.66 1.98 12 3 C12.33 2.01 12.66 1.02 13 0 C14.65 0 16.3 0 18 0 C17.40984815 5.50808397 16.43336231 10.64878069 15 16 C13.35 16 11.7 16 10 16 C10 15.01 10 14.02 10 13 C9.34 13 8.68 13 8 13 C8 13.99 8 14.98 8 16 C6.35 16 4.7 16 3 16 C2.49193553 14.27318563 1.99389533 12.54342021 1.5 10.8125 C1.08234375 9.36810547 1.08234375 9.36810547 0.65625 7.89453125 C0.03322392 5.14654124 -0.12302812 2.80401584 0 0 Z " fill="#CDCDCD" transform="translate(28,27)"/>
<path d="M0 0 C1.65 0 3.3 0 5 0 C5.66 0.66 6.32 1.32 7 2 C7.33 1.34 7.66 0.68 8 0 C9.65 0 11.3 0 13 0 C13 5.28 13 10.56 13 16 C11.35 16 9.7 16 8 16 C7.34 14.68 6.68 13.36 6 12 C5.67 13.32 5.34 14.64 5 16 C3.35 16 1.7 16 0 16 C0 10.72 0 5.44 0 0 Z " fill="#D5D5D5" transform="translate(2,27)"/>
<path d="M0 0 C-0.33 1.65 -0.66 3.3 -1 5 C-1.99 4.67 -2.98 4.34 -4 4 C-4 4.66 -4 5.32 -4 6 C-3.0409375 6.2165625 -3.0409375 6.2165625 -2.0625 6.4375 C0 7 0 7 1 8 C1.28792759 10.73531209 1.34443368 12.41243666 -0.0625 14.8125 C-2.99268751 16.60842137 -5.6472953 16.18977574 -9 16 C-9.33 14.35 -9.66 12.7 -10 11 C-9.01 10.67 -8.02 10.34 -7 10 C-7.495 9.608125 -7.99 9.21625 -8.5 8.8125 C-10 7 -10 7 -10.375 4.5 C-10 2 -10 2 -8.9375 0.125 C-5.88430685 -1.64782183 -3.33588292 -0.69235306 0 0 Z " fill="#CDCDCD" transform="translate(27,27)"/>
<path d="M0 0 C0.33 0 0.66 0 1 0 C1 3.3 1 6.6 1 10 C12.55 10 24.1 10 36 10 C32 14 32 14 28.46875 14.35546875 C27.1590625 14.30003906 25.849375 14.24460937 24.5 14.1875 C18.66555063 13.87753321 18.66555063 13.87753321 13 15 C13 14.34 13 13.68 13 13 C12.39671875 13.09539063 11.7934375 13.19078125 11.171875 13.2890625 C9.97304688 13.45535156 9.97304688 13.45535156 8.75 13.625 C7.96109375 13.74101562 7.1721875 13.85703125 6.359375 13.9765625 C4 14 4 14 0 12 C0 8.04 0 4.08 0 0 Z " fill="#DDCA27" transform="translate(3,12)"/>
<path d="M0 0 C0 0.66 0 1.32 0 2 C1.32 1.67 2.64 1.34 4 1 C3.01 2.485 3.01 2.485 2 4 C1.92094936 6.33199388 1.91201231 8.66832622 2 11 C3.32 11.66 4.64 12.32 6 13 C4.68 13 3.36 13 2 13 C1.34 14.65 0.68 16.3 0 18 C-0.33 18 -0.66 18 -1 18 C-1 12.72 -1 7.44 -1 2 C-2.65 2 -4.3 2 -6 2 C-6 3.65 -6 5.3 -6 7 C-6.5878125 6.0409375 -6.5878125 6.0409375 -7.1875 5.0625 C-9.38472296 2.56221181 -10.75791433 2.35049575 -14 2 C-14 1.67 -14 1.34 -14 1 C-9.27616037 0.34843591 -4.78025483 -0.11950637 0 0 Z " fill="#35342A" transform="translate(16,25)"/>
<path d="M0 0 C-0.33 1.65 -0.66 3.3 -1 5 C-1.99 4.67 -2.98 4.34 -4 4 C-4 4.66 -4 5.32 -4 6 C-3.34 6.33 -2.68 6.66 -2 7 C-4.64 7 -7.28 7 -10 7 C-10.22111261 4.27294446 -10.30361625 2.53579338 -8.9375 0.125 C-5.88430685 -1.64782183 -3.33588292 -0.69235306 0 0 Z " fill="#E8E8E8" transform="translate(27,27)"/>
<path d="M0 0 C2.375 -0.125 2.375 -0.125 5 0 C7.35953094 2.35953094 7.49141413 3.77895617 8 7 C5.36 7 2.72 7 0 7 C0 4.69 0 2.38 0 0 Z " fill="#F6F6F6" transform="translate(2,27)"/>
<path d="M0 0 C1.53333984 0.00676758 1.53333984 0.00676758 3.09765625 0.01367188 C5.60683194 0.025397 8.1158849 0.04180824 10.625 0.0625 C8.31694992 2.72694984 7.93456322 3.03925635 4.19140625 3.3203125 C2.85635536 3.29114555 1.52157263 3.24633734 0.1875 3.1875 C-5.67868375 2.92440018 -5.67868375 2.92440018 -11.375 4.0625 C-11.375 3.4025 -11.375 2.7425 -11.375 2.0625 C-13.355 2.0625 -15.335 2.0625 -17.375 2.0625 C-17.375 1.7325 -17.375 1.4025 -17.375 1.0625 C-11.58854356 -0.19156138 -5.88631884 -0.04936913 0 0 Z " fill="#BCAC22" transform="translate(27.375,22.9375)"/>
<path d="M0 0 C2.60444348 -0.05394705 5.20776998 -0.09364469 7.8125 -0.125 C8.55048828 -0.14175781 9.28847656 -0.15851562 10.04882812 -0.17578125 C13.91246426 -0.21074628 15.70903668 -0.19397555 19 2 C17.68 2 16.36 2 15 2 C14.67 3.65 14.34 5.3 14 7 C13.67 7 13.34 7 13 7 C13 5.35 13 3.7 13 2 C11.35 2 9.7 2 8 2 C7.67 2.66 7.34 3.32 7 4 C7 3.34 7 2.68 7 2 C4.69 1.67 2.38 1.34 0 1 C0 0.67 0 0.34 0 0 Z " fill="#313022" transform="translate(20,25)"/>
<path d="M0 0 C1.65 0 3.3 0 5 0 C4.67 2.31 4.34 4.62 4 7 C2.68 7 1.36 7 0 7 C0 4.69 0 2.38 0 0 Z " fill="#F3F3F3" transform="translate(41,27)"/>
<path d="M0 0 C1.65 0 3.3 0 5 0 C5 2.31 5 4.62 5 7 C3.68 7 2.36 7 1 7 C0.67 4.69 0.34 2.38 0 0 Z " fill="#F3F3F3" transform="translate(28,27)"/>
<path d="M0 0 C1.32 0 2.64 0 4 0 C4 2.31 4 4.62 4 7 C2.68 7 1.36 7 0 7 C0 4.69 0 2.38 0 0 Z " fill="#FCFCFC" transform="translate(35,27)"/>
<path d="M0 0 C1.32 0 2.64 0 4 0 C4 2.31 4 4.62 4 7 C2.68 7 1.36 7 0 7 C0 4.69 0 2.38 0 0 Z " fill="#FCFCFC" transform="translate(11,27)"/>
<path d="M0 0 C0.66 0.33 1.32 0.66 2 1 C1.34 1.66 0.68 2.32 0 3 C-0.16677282 6.58343976 -0.16677282 6.58343976 0 10 C1.32 10.66 2.64 11.32 4 12 C2.68 12 1.36 12 0 12 C-0.66 12.66 -1.32 13.32 -2 14 C-2 9.71 -2 5.42 -2 1 C-1.34 0.67 -0.68 0.34 0 0 Z " fill="#0F0F0C" transform="translate(18,26)"/>
<path d="M0 0 C0.33 0 0.66 0 1 0 C1 3.63 1 7.26 1 11 C2.65 11 4.3 11 6 11 C6.33 11.99 6.66 12.98 7 14 C4.61435923 13.42415568 2.33317216 12.77772405 0 12 C0 8.04 0 4.08 0 0 Z " fill="#B1A32D" transform="translate(3,12)"/>
</svg>
