<?xml version="1.0" encoding="UTF-8"?>
<svg version="1.1" xmlns="http://www.w3.org/2000/svg" width="96" height="96">
<path d="M0 0 C5.55882353 -0.37058824 5.55882353 -0.37058824 7.5625 1.3125 C8.036875 1.869375 8.51125 2.42625 9 3 C9.86625 3.4125 10.7325 3.825 11.625 4.25 C14 6 14 6 14.8125 9.6875 C14.874375 10.780625 14.93625 11.87375 15 13 C15.5775 13.0825 16.155 13.165 16.75 13.25 C19.73561669 14.24520556 21.07461449 15.52450434 23 18 C23.25 20.75 23.25 20.75 23 23 C25.41645782 23.16687448 25.41645782 23.16687448 28 23 C28.66 22.34 29.32 21.68 30 21 C33.01305957 21.38878188 34.39685311 22.26456874 37 24 C36.8864371 25.64666203 36.75882619 27.29236082 36.625 28.9375 C36.55539063 29.85402344 36.48578125 30.77054688 36.4140625 31.71484375 C36.20910156 32.84599609 36.20910156 32.84599609 36 34 C35.01 34.495 35.01 34.495 34 35 C33.67 35.99 33.34 36.98 33 38 C32.01 38.33 31.02 38.66 30 39 C28.78130071 41.50447516 28.78130071 41.50447516 28 44 C28.66 44.66 29.32 45.32 30 46 C31.61176158 54.34510766 28.23233196 61.61201219 25 69.125 C24.28457031 70.84589844 24.28457031 70.84589844 23.5546875 72.6015625 C22.38533057 75.40801914 21.20032794 78.20668366 20 81 C22.97 81 25.94 81 29 81 C30.18306728 83.36613456 30.13354608 84.86780736 30.125 87.5 C30.12886719 88.69109375 30.12886719 88.69109375 30.1328125 89.90625 C30 92 30 92 29 94 C25.44656204 95.18447932 22.59722116 95.12955787 18.84765625 95.1328125 C17.8028434 95.13424759 17.8028434 95.13424759 16.73692322 95.13571167 C15.26512563 95.1363915 13.79332502 95.13455095 12.3215332 95.13037109 C10.07431255 95.12502809 7.8272925 95.13031853 5.58007812 95.13671875 C4.14843706 95.13605778 2.71679612 95.13477621 1.28515625 95.1328125 C-0.01542725 95.13168457 -1.31601074 95.13055664 -2.65600586 95.12939453 C-6 95 -6 95 -8.21313477 94.43310547 C-10.96803134 93.76536582 -13.2973377 94.77631707 -15.9609375 95.51953125 C-18.66729319 96.15723575 -21.23404553 96.13829772 -24 96 C-24.061875 95.236875 -24.12375 94.47375 -24.1875 93.6875 C-24.73343174 90.77318355 -24.73343174 90.77318355 -27.5 89.5625 C-30 88 -30 88 -31.0625 85.25 C-30.9578503 79.80821583 -27.97382218 76.46073326 -25 72 C-24.34 72 -23.68 72 -23 72 C-23.01047363 71.22285645 -23.02094727 70.44571289 -23.03173828 69.64501953 C-23.07320282 66.138379 -23.09929578 62.63178994 -23.125 59.125 C-23.14175781 57.90167969 -23.15851562 56.67835937 -23.17578125 55.41796875 C-23.18222656 54.25136719 -23.18867188 53.08476563 -23.1953125 51.8828125 C-23.20578613 50.80402832 -23.21625977 49.72524414 -23.22705078 48.61376953 C-23 46 -23 46 -21 44 C-17.71316949 43.88088496 -14.4887126 43.9563962 -11.20507812 44.078125 C-6.41259783 44.18551952 -2.63720823 43.35627085 2 42 C5.8125 42.9375 5.8125 42.9375 9 44 C9.66 43.67 10.32 43.34 11 43 C10.175 42.566875 9.35 42.13375 8.5 41.6875 C7.675 41.130625 6.85 40.57375 6 40 C6 39.01 6 38.02 6 37 C5.34 37 4.68 37 4 37 C4.33 36.01 4.66 35.02 5 34 C5.66 34 6.32 34 7 34 C7 33.34 7 32.68 7 32 C7.66 32 8.32 32 9 32 C9.99938582 24.94877784 9.22287878 20.59761759 5.125 14.6875 C4.40570313 13.74261719 3.68640625 12.79773437 2.9453125 11.82421875 C0.92450291 8.89039278 -0.17045751 6.45642706 -1 3 C-0.67 2.01 -0.34 1.02 0 0 Z M11 59 C7.88256167 60.55871917 7.23955012 62.83914719 6 66 C6.85295485 68.18083474 6.85295485 68.18083474 8 70 C8.69699552 68.54618103 9.38233866 67.08677047 10.0625 65.625 C10.44535156 64.81289062 10.82820313 64.00078125 11.22265625 63.1640625 C11.60744141 62.09285156 11.60744141 62.09285156 12 61 C11.67 60.34 11.34 59.68 11 59 Z " fill="#0A0A0A" transform="translate(45,0)"/>
<path d="M0 0 C2.97 0 5.94 0 9 0 C9.19335938 0.88042969 9.38671875 1.76085938 9.5859375 2.66796875 C9.84632812 3.82941406 10.10671875 4.99085937 10.375 6.1875 C10.63023438 7.33605469 10.88546875 8.48460937 11.1484375 9.66796875 C12.00936029 13.33738678 12.00936029 13.33738678 14 18 C14.495 9.09 14.495 9.09 15 0 C16.98 0 18.96 0 21 0 C21 13.86 21 27.72 21 42 C18.69 42 16.38 42 14 42 C13.74605469 41.04480469 13.49210937 40.08960938 13.23046875 39.10546875 C12.88283 37.79947451 12.53517273 36.4934852 12.1875 35.1875 C11.85105469 33.92292969 11.51460937 32.65835938 11.16796875 31.35546875 C9.79425773 26.23276714 8.3954938 21.11681061 7 16 C6.67 24.91 6.34 33.82 6 43 C4.02 43 2.04 43 0 43 C0 28.81 0 14.62 0 0 Z " fill="#F2F2F2" transform="translate(26,48)"/>
<path d="M0 0 C0.66 0 1.32 0 2 0 C3 1 4 2 5 3 C5.99 3.515625 6.98 4.03125 8 4.5625 C12.22631782 7.99638323 12.87239037 11.81695221 14 17 C14.33 16.67 14.66 16.34 15 16 C15.66 15.67 16.32 15.34 17 15 C17 15.66 17 16.32 17 17 C17.66 17 18.32 17 19 17 C19.33 19.31 19.66 21.62 20 24 C22.64 24.66 25.28 25.32 28 26 C28.33 25.01 28.66 24.02 29 23 C30.32 23.33 31.64 23.66 33 24 C33.21863671 27.20667173 33.33122923 29.37240778 31.8125 32.25 C30 34 30 34 27.375 34.875 C26.59125 35.24625 25.8075 35.6175 25 36 C24.32882152 38.94363898 24.32882152 38.94363898 24 42 C22.875 43.875 22.875 43.875 21 45 C17.3125 45.1875 17.3125 45.1875 14 45 C14 43.35 14 41.7 14 40 C12.8553125 39.566875 12.8553125 39.566875 11.6875 39.125 C9 38 9 38 6 36 C6.33 35.01 6.66 34.02 7 33 C8.485 32.505 8.485 32.505 10 32 C11.36882616 26.66371678 11.77348397 22.62229536 9.35546875 17.55078125 C7.97832643 15.27958634 6.49748241 13.13088616 4.98046875 10.9453125 C2.60296854 7.40954296 1.33793711 4.01381133 0 0 Z " fill="#A6A6A6" transform="translate(46,1)"/>
<path d="M0 0 C6.27 0 12.54 0 19 0 C19 7.87304891 19 7.87304891 17.390625 11.48828125 C17.04966797 12.27291748 16.70871094 13.05755371 16.35742188 13.8659668 C15.99197266 14.67332275 15.62652344 15.48067871 15.25 16.3125 C14.51503665 17.99193014 13.78065622 19.67161552 13.046875 21.3515625 C12.51610352 22.55087402 12.51610352 22.55087402 11.97460938 23.77441406 C10.20860939 27.80719359 8.61162149 31.90379538 7 36 C10.96 36 14.92 36 19 36 C19 38.31 19 40.62 19 43 C12.4 43 5.8 43 -1 43 C-1 36.70678002 -0.64752737 34.3001084 1.6875 28.8125 C1.95788086 28.16829102 2.22826172 27.52408203 2.50683594 26.86035156 C3.06065655 25.54299866 3.61939392 24.22770166 4.18310547 22.91455078 C5.40897404 20.04149001 6.57237012 17.14310266 7.75 14.25 C8.99992796 11.20017578 10.16275748 8.75586379 12 6 C8.04 6 4.08 6 0 6 C0 4.02 0 2.04 0 0 Z " fill="#ECECEC" transform="translate(52,48)"/>
<path d="M0 0 C0.78552246 0.01047363 1.57104492 0.02094727 2.38037109 0.03173828 C3.23115234 0.03818359 4.08193359 0.04462891 4.95849609 0.05126953 C6.29267578 0.07640625 6.29267578 0.07640625 7.65380859 0.10205078 C8.99958984 0.11558594 8.99958984 0.11558594 10.37255859 0.12939453 C12.59157445 0.15300108 14.81005937 0.18592768 17.02880859 0.22705078 C17.35880859 1.21705078 17.68880859 2.20705078 18.02880859 3.22705078 C20.04389218 3.96028874 20.04389218 3.96028874 22.02880859 4.22705078 C19.71880859 4.22705078 17.40880859 4.22705078 15.02880859 4.22705078 C15.02880859 11.15705078 15.02880859 18.08705078 15.02880859 25.22705078 C10.59069896 18.56988633 9.49430534 12.06023736 9.02880859 4.22705078 C6.05880859 4.22705078 3.08880859 4.22705078 0.02880859 4.22705078 C0.02880859 11.81705078 0.02880859 19.40705078 0.02880859 27.22705078 C-1.29119141 27.22705078 -2.61119141 27.22705078 -3.97119141 27.22705078 C-4.02903848 23.10210927 -4.06473548 18.97727134 -4.09619141 14.85205078 C-4.11294922 13.67642578 -4.12970703 12.50080078 -4.14697266 11.28955078 C-4.15341797 10.16806641 -4.15986328 9.04658203 -4.16650391 7.89111328 C-4.17697754 6.85422363 -4.18745117 5.81733398 -4.19824219 4.74902344 C-3.91728147 1.6282447 -3.23023821 0.37207351 0 0 Z " fill="#040404" transform="translate(25.97119140625,43.77294921875)"/>
<path d="M0 0 C0 7.26 0 14.52 0 22 C-4 23 -4 23 -6 22 C-6 21.34 -6 20.68 -6 20 C-6.804375 19.5875 -7.60875 19.175 -8.4375 18.75 C-11 17 -11 17 -12.0625 14.25 C-11.96003687 8.9219173 -9.24742204 5.52029561 -6 1.5625 C-4 0 -4 0 0 0 Z " fill="#282828" transform="translate(26,71)"/>
<path d="M0 0 C0.99 0.33 1.98 0.66 3 1 C3 2.65 3 4.3 3 6 C5.31 6 7.62 6 10 6 C9.67 6.66 9.34 7.32 9 8 C4.38 8 -0.24 8 -5 8 C-5 9.98 -5 11.96 -5 14 C-5.33 14.66 -5.66 15.32 -6 16 C-5.01 16.33 -4.02 16.66 -3 17 C-3.66 17.66 -4.32 18.32 -5 19 C-5.6425235 21.06874034 -5.6425235 21.06874034 -6 23 C-6.99 23 -7.98 23 -9 23 C-9 32.24 -9 41.48 -9 51 C-11.64 51 -14.28 51 -17 51 C-17 50.67 -17 50.34 -17 50 C-14.69 50 -12.38 50 -10 50 C-10 36.14 -10 22.28 -10 8 C-10.99 7.67 -11.98 7.34 -13 7 C-13.33 6.01 -13.66 5.02 -14 4 C-12.4375 2.875 -12.4375 2.875 -10 2 C-7.645752 2.588562 -5.31029085 3.25740651 -3 4 C-1.68 4 -0.36 4 1 4 C0.67 2.68 0.34 1.36 0 0 Z " fill="#3B3B3B" transform="translate(57,40)"/>
<path d="M0 0 C5.55882353 -0.37058824 5.55882353 -0.37058824 7.5625 1.3125 C8.036875 1.869375 8.51125 2.42625 9 3 C10.2684375 3.5878125 10.2684375 3.5878125 11.5625 4.1875 C14.72417573 6.53848964 14.90489662 8.3948295 15.54296875 12.16015625 C15.89022926 14.23408311 15.89022926 14.23408311 18 16 C17.34 17.32 16.68 18.64 16 20 C13.63684146 17.63684146 13.55901064 16.4004232 12.875 13.1875 C11.71351576 8.97331897 10.59378183 7.22075282 6.8125 5 C6.09707031 4.649375 5.38164063 4.29875 4.64453125 3.9375 C4.10183594 3.628125 3.55914062 3.31875 3 3 C3 2.34 3 1.68 3 1 C2.34 1 1.68 1 1 1 C1.433125 1.515625 1.86625 2.03125 2.3125 2.5625 C3.96233682 4.94559762 4.97784317 7.27479076 6.03515625 9.9609375 C7.19815298 12.41876866 8.71049363 14.51007156 10.25 16.75 C13.25126922 21.61773017 13.44086143 25.1491481 12.8203125 30.75 C12 33 12 33 9.9296875 34.3125 C8.97449219 34.6528125 8.97449219 34.6528125 8 35 C7.77011494 37.36278736 7.77011494 37.36278736 10.5 39.625 C11.325 40.40875 12.15 41.1925 13 42 C9.89448334 42 8.64738916 41.4606285 6 40 C6 39.01 6 38.02 6 37 C5.34 37 4.68 37 4 37 C4.33 36.01 4.66 35.02 5 34 C5.66 34 6.32 34 7 34 C7 33.34 7 32.68 7 32 C7.66 32 8.32 32 9 32 C9.99938582 24.94877784 9.22287878 20.59761759 5.125 14.6875 C4.40570313 13.74261719 3.68640625 12.79773437 2.9453125 11.82421875 C0.92450291 8.89039278 -0.17045751 6.45642706 -1 3 C-0.67 2.01 -0.34 1.02 0 0 Z " fill="#1B1B1B" transform="translate(45,0)"/>
<path d="M0 0 C0.66 0 1.32 0 2 0 C3 1 4 2 5 3 C5.99 3.515625 6.98 4.03125 8 4.5625 C12.26327345 8.02640968 12.79504837 11.80743865 14 17 C14.33 17.99 14.66 18.98 15 20 C14.34 20 13.68 20 13 20 C13.33 21.98 13.66 23.96 14 26 C10.88033268 22.88033268 9.43208896 18.8944256 7.53515625 14.9453125 C6.19834311 12.38053615 4.76405247 10.27377869 3 8 C1.84230834 5.36303565 0.91084677 2.7325403 0 0 Z " fill="#B3B3B3" transform="translate(46,1)"/>
<path d="M0 0 C0.99 0 1.98 0 3 0 C6.96861093 5.41174218 7.33557929 9.01101588 6.75 15.64453125 C6 18 6 18 3.9375 19.32421875 C3.298125 19.54722656 2.65875 19.77023438 2 20 C1.77011494 22.36278736 1.77011494 22.36278736 4.5 24.625 C5.325 25.40875 6.15 26.1925 7 27 C3.89448334 27 2.64738916 26.4606285 0 25 C0 24.01 0 23.02 0 22 C-0.66 22 -1.32 22 -2 22 C-1.505 20.515 -1.505 20.515 -1 19 C-0.34 19 0.32 19 1 19 C1 18.34 1 17.68 1 17 C1.66 17 2.32 17 3 17 C3.46160638 8.09018098 3.46160638 8.09018098 0 0 Z " fill="#151515" transform="translate(51,15)"/>
<path d="M0 0 C0.33 0 0.66 0 1 0 C1 4.62 1 9.24 1 14 C-0.98 14 -2.96 14 -5 14 C-5.92407032 11.45880661 -6.29932296 9.7227176 -5.24609375 7.1796875 C-3.72793752 4.5019064 -2.17979845 2.17979845 0 0 Z " fill="#ACACAC" transform="translate(23,73)"/>
<path d="M0 0 C0 7.26 0 14.52 0 22 C-1.32 22.33 -2.64 22.66 -4 23 C-4 20 -4 20 -3.50390625 18.234375 C-2.82194482 15.210484 -2.90654349 12.34565077 -2.9375 9.25 C-2.95103516 7.49429688 -2.95103516 7.49429688 -2.96484375 5.703125 C-2.97644531 4.81109375 -2.98804688 3.9190625 -3 3 C-3.99 3 -4.98 3 -6 3 C-6 2.34 -6 1.68 -6 1 C-4 0 -4 0 0 0 Z " fill="#444444" transform="translate(26,71)"/>
<path d="M0 0 C0.99 1.485 0.99 1.485 2 3 C2.33 2.34 2.66 1.68 3 1 C3.66 1 4.32 1 5 1 C5 5.62 5 10.24 5 15 C3.39282229 12.58923344 2.38457485 10.71900755 1.375 8.0625 C0.98441406 7.05896484 0.98441406 7.05896484 0.5859375 6.03515625 C0 4 0 4 0 0 Z " fill="#333333" transform="translate(36,54)"/>
<path d="M0 0 C2.12508244 3.18762365 2.5020163 5.26512223 3 9 C2.34 9 1.68 9 1 9 C0.67 9.66 0.34 10.32 0 11 C-0.66 11 -1.32 11 -2 11 C-2 8.03 -2 5.06 -2 2 C-1.34 2 -0.68 2 0 2 C0 1.34 0 0.68 0 0 Z " fill="#626262" transform="translate(36,75)"/>
<path d="M0 0 C4.41489359 2.94326239 5.36436336 7.09309008 7 12 C6.01 12 5.02 12 4 12 C2.578125 10.390625 2.578125 10.390625 1.25 8.25 C0.80140625 7.55390625 0.3528125 6.8578125 -0.109375 6.140625 C-1.16007332 3.61526236 -0.93134261 2.52143975 0 0 Z " fill="#303030" transform="translate(46,3)"/>
<path d="M0 0 C3.3 0.99 6.6 1.98 10 3 C9.01 3.495 9.01 3.495 8 4 C6.86649466 6.01669827 6.86649466 6.01669827 6 8 C5.38125 7.360625 4.7625 6.72125 4.125 6.0625 C2.17402388 3.96116416 2.17402388 3.96116416 0 3 C0 2.01 0 1.02 0 0 Z " fill="#0A0A0A" transform="translate(15,85)"/>
<path d="M0 0 C5.5 -0.36666667 5.5 -0.36666667 7.875 1.375 C9 3 9 3 9 5 C7.35 4.67 5.7 4.34 4 4 C3.67 3.01 3.34 2.02 3 1 C2.34 1 1.68 1 1 1 C0.67 2.32 0.34 3.64 0 5 C-0.33 4.34 -0.66 3.68 -1 3 C-0.67 2.01 -0.34 1.02 0 0 Z " fill="#101010" transform="translate(45,0)"/>
<path d="M0 0 C1.65 0 3.3 0 5 0 C5 5.28 5 10.56 5 16 C4.34 15.67 3.68 15.34 3 15 C3 10.71 3 6.42 3 2 C2.01 2 1.02 2 0 2 C0 1.34 0 0.68 0 0 Z " fill="#505050" transform="translate(20,72)"/>
<path d="M0 0 C3.00617269 3.00617269 2.59585316 5.82381598 3 10 C2.34 10 1.68 10 1 10 C0.67 10.66 0.34 11.32 0 12 C0 8.04 0 4.08 0 0 Z " fill="#171717" transform="translate(33,67)"/>
<path d="M0 0 C0.66 0.33 1.32 0.66 2 1 C2.33 1.99 2.66 2.98 3 4 C3.66 4 4.32 4 5 4 C5 4.66 5 5.32 5 6 C4.34 6 3.68 6 3 6 C3.33 7.98 3.66 9.96 4 12 C1.94577945 9.94577945 1.31862408 8.66990976 0.3125 6 C0.04050781 5.29875 -0.23148438 4.5975 -0.51171875 3.875 C-1 2 -1 2 0 0 Z " fill="#C2C2C2" transform="translate(56,15)"/>
<path d="M0 0 C2.125 0.375 2.125 0.375 4 1 C4 2.65 4 4.3 4 6 C2.35 5.67 0.7 5.34 -1 5 C-1.33 4.01 -1.66 3.02 -2 2 C-1.34 1.34 -0.68 0.68 0 0 Z " fill="#333333" transform="translate(45,42)"/>
<path d="M0 0 C0.66 0 1.32 0 2 0 C2 0.66 2 1.32 2 2 C2.99 2.33 3.98 2.66 5 3 C3.625 5.5 3.625 5.5 2 8 C1.34 8 0.68 8 0 8 C0 5.36 0 2.72 0 0 Z " fill="#6D6D6D" transform="translate(49,54)"/>
<path d="M0 0 C0.66 0 1.32 0 2 0 C2 0.66 2 1.32 2 2 C2.66 2 3.32 2 4 2 C4.33 4.31 4.66 6.62 5 9 C4.34 9 3.68 9 3 9 C3 8.01 3 7.02 3 6 C2.01 6 1.02 6 0 6 C0 4.02 0 2.04 0 0 Z " fill="#B0B0B0" transform="translate(61,16)"/>
<path d="M0 0 C1.65 0 3.3 0 5 0 C5.66 1.98 6.32 3.96 7 6 C6.01 6.495 6.01 6.495 5 7 C4.67 5.68 4.34 4.36 4 3 C3.01 3.33 2.02 3.66 1 4 C0.67 2.68 0.34 1.36 0 0 Z " fill="#9C9C9C" transform="translate(53,13)"/>
<path d="M0 0 C2.475 0.495 2.475 0.495 5 1 C5 1.99 5 2.98 5 4 C3.35 4 1.7 4 0 4 C0 2.68 0 1.36 0 0 Z " fill="#030303" transform="translate(54,44)"/>
<path d="M0 0 C0.66 0.33 1.32 0.66 2 1 C1.625 3.9375 1.625 3.9375 1 7 C0.01 7.495 0.01 7.495 -1 8 C-1.33 5.69 -1.66 3.38 -2 1 C-1.34 0.67 -0.68 0.34 0 0 Z " fill="#141414" transform="translate(80,23)"/>
<path d="M0 0 C0.99 0 1.98 0 3 0 C3.99 1.98 4.98 3.96 6 6 C5.01 6 4.02 6 3 6 C2.01 4.02 1.02 2.04 0 0 Z " fill="#1E1E1E" transform="translate(51,15)"/>
<path d="M0 0 C2 1 2 1 2 1 Z " fill="#000000" transform="translate(52,43)"/>
<path d="" fill="#181818" transform="translate(0,0)"/>
</svg>
