<?xml version="1.0" encoding="UTF-8"?>
<svg version="1.1" xmlns="http://www.w3.org/2000/svg" width="96" height="96">
<path d="M0 0 C8.25 0 16.5 0 25 0 C25.495 0.99 25.495 0.99 26 2 C28.01669827 3.13350534 28.01669827 3.13350534 30 4 C30.99 3.34 31.98 2.68 33 2 C35.1875 2.375 35.1875 2.375 37 3 C37.33 2.01 37.66 1.02 38 0 C39.47906892 -0.02689216 40.95827483 -0.04634621 42.4375 -0.0625 C43.26121094 -0.07410156 44.08492187 -0.08570313 44.93359375 -0.09765625 C47 0 47 0 48 1 C48.42563308 2.92701005 48.79103502 4.86750678 49.125 6.8125 C49.31320313 7.87082031 49.50140625 8.92914063 49.6953125 10.01953125 C49.97876221 12.79225089 49.74187406 14.37988923 49 17 C49.495 17.99 49.495 17.99 50 19 C50.14375422 22.37822416 50.07536348 24.77390955 49 28 C49.495 29.485 49.495 29.485 50 31 C51.64551962 31.71727778 53.31422289 32.38325228 55 33 C57 35 57 35 57.22705078 37.24658203 C57.21657715 38.15778809 57.20610352 39.06899414 57.1953125 40.0078125 C57.18886719 40.99394531 57.18242188 41.98007812 57.17578125 42.99609375 C57.15064453 44.54490234 57.15064453 44.54490234 57.125 46.125 C57.11597656 47.16527344 57.10695313 48.20554688 57.09765625 49.27734375 C57.07403747 51.85179092 57.04110149 54.42578212 57 57 C58.485 57.495 58.485 57.495 60 58 C60 62.29 60 66.58 60 71 C58.515 71.495 58.515 71.495 57 72 C57 79.92 57 87.84 57 96 C35.88 96 14.76 96 -7 96 C-7 94.68 -7 93.36 -7 92 C-7.99 91.67 -8.98 91.34 -10 91 C-10 79.78 -10 68.56 -10 57 C-9.01 56.505 -9.01 56.505 -8 56 C-7.98541748 55.04633545 -7.97083496 54.0926709 -7.95581055 53.11010742 C-7.89782208 49.57066415 -7.82059042 46.03185676 -7.73754883 42.49291992 C-7.70430182 40.96144941 -7.67626907 39.42985644 -7.65356445 37.89819336 C-7.62001282 35.69592113 -7.5677009 33.49477088 -7.51171875 31.29296875 C-7.50532883 30.60849167 -7.4989389 29.92401459 -7.49235535 29.21879578 C-7.4031576 26.33281425 -7.30525154 24.42432242 -5.59301758 22.04418945 C-4 21 -4 21 -2 21 C-0.36106811 16.30172858 1 11.99861936 1 7 C0.01 6.67 -0.98 6.34 -2 6 C-1.34 4.02 -0.68 2.04 0 0 Z " fill="#762543" transform="translate(25,0)"/>
<path d="M0 0 C8.25 0 16.5 0 25 0 C25.495 0.99 25.495 0.99 26 2 C28.01669827 3.13350534 28.01669827 3.13350534 30 4 C30.99 3.34 31.98 2.68 33 2 C35.1875 2.375 35.1875 2.375 37 3 C37.33 2.01 37.66 1.02 38 0 C39.47906892 -0.02689216 40.95827483 -0.04634621 42.4375 -0.0625 C43.26121094 -0.07410156 44.08492187 -0.08570313 44.93359375 -0.09765625 C47 0 47 0 48 1 C48.42563308 2.92701005 48.79103502 4.86750678 49.125 6.8125 C49.31320313 7.87082031 49.50140625 8.92914063 49.6953125 10.01953125 C49.97876221 12.79225089 49.74187406 14.37988923 49 17 C49.495 17.99 49.495 17.99 50 19 C50.14375422 22.37822416 50.07536348 24.77390955 49 28 C49.495 29.485 49.495 29.485 50 31 C51.64551962 31.71727778 53.31422289 32.38325228 55 33 C57 35 57 35 57.22705078 37.24658203 C57.21657715 38.15778809 57.20610352 39.06899414 57.1953125 40.0078125 C57.18886719 40.99394531 57.18242188 41.98007812 57.17578125 42.99609375 C57.15064453 44.54490234 57.15064453 44.54490234 57.125 46.125 C57.11597656 47.16527344 57.10695313 48.20554688 57.09765625 49.27734375 C57.07403747 51.85179092 57.04110149 54.42578212 57 57 C58.485 57.495 58.485 57.495 60 58 C60 62.29 60 66.58 60 71 C58.515 71.495 58.515 71.495 57 72 C57 79.92 57 87.84 57 96 C55.02 96 53.04 96 51 96 C51 87.09 51 78.18 51 69 C49.68 69 48.36 69 47 69 C47 76.26 47 83.52 47 91 C46.67 91 46.34 91 46 91 C46 82.75 46 74.5 46 66 C48.64 66 51.28 66 54 66 C54 63.03 54 60.06 54 57 C53.01 57 52.02 57 51 57 C50.99589111 56.34926514 50.99178223 55.69853027 50.98754883 55.02807617 C50.95465827 52.08029254 50.88402238 49.13458866 50.8125 46.1875 C50.80669922 45.16333984 50.80089844 44.13917969 50.79492188 43.08398438 C50.71283533 40.30216261 50.58669176 37.72126955 50 35 C47.7610691 32.76038094 47.7610691 32.76038094 45 32 C41.24646665 29.78637777 37.61297676 27.43665875 34 25 C34.309375 24.29875 34.61875 23.5975 34.9375 22.875 C36.03302678 19.91063343 36.56422992 17.12301892 37 14 C38.32 14 39.64 14 41 14 C41.33 12.68 41.66 11.36 42 10 C41.39414063 9.95101563 40.78828125 9.90203125 40.1640625 9.8515625 C34.00239536 9.3017522 28.04114049 8.32390951 22 7 C22 6.34 22 5.68 22 5 C20.02 5 18.04 5 16 5 C16.99 5.33 17.98 5.66 19 6 C19 7.32 19 8.64 19 10 C18.40832031 10.06058594 17.81664063 10.12117187 17.20703125 10.18359375 C13.09021792 10.62012371 9.04455467 11.08671346 5 12 C5 13.65 5 15.3 5 17 C4.01 17.33 3.02 17.66 2 18 C2 18.99 2 19.98 2 21 C1.34 21 0.68 21 0 21 C0 21.99 0 22.98 0 24 C0.66 24 1.32 24 2 24 C2 24.66 2 25.32 2 26 C0.68 26 -0.64 26 -2 26 C-2.33 35.9 -2.66 45.8 -3 56 C-1.02 56 0.96 56 3 56 C3.33 56.66 3.66 57.32 4 58 C0.7 57.67 -2.6 57.34 -6 57 C-6 67.89 -6 78.78 -6 90 C-3.03 90 -0.06 90 3 90 C3 84.39 3 78.78 3 73 C6.36351222 76.36351222 9.36157445 79.51412564 12.3125 83.1875 C13.00988281 84.04730469 13.70726563 84.90710938 14.42578125 85.79296875 C16 88 16 88 16 90 C18.97 90 21.94 90 25 90 C25 80.1 25 70.2 25 60 C25.66 60 26.32 60 27 60 C27 61.98 27 63.96 27 66 C29.97 66 32.94 66 36 66 C36 74.25 36 82.5 36 91 C35.67 91 35.34 91 35 91 C35 83.74 35 76.48 35 69 C32.36 68.67 29.72 68.34 27 68 C27 76.25 27 84.5 27 93 C17.54545455 93 17.54545455 93 14 90 C7 81.97058824 7 81.97058824 7 79 C6.34 79 5.68 79 5 79 C5 83.62 5 88.24 5 93 C2.36 93 -0.28 93 -3 93 C-3 93.99 -3 94.98 -3 96 C-4.32 96 -5.64 96 -7 96 C-7 94.68 -7 93.36 -7 92 C-7.99 91.67 -8.98 91.34 -10 91 C-10 79.78 -10 68.56 -10 57 C-9.01 56.505 -9.01 56.505 -8 56 C-7.98541748 55.04633545 -7.97083496 54.0926709 -7.95581055 53.11010742 C-7.89782208 49.57066415 -7.82059042 46.03185676 -7.73754883 42.49291992 C-7.70430182 40.96144941 -7.67626907 39.42985644 -7.65356445 37.89819336 C-7.62001282 35.69592113 -7.5677009 33.49477088 -7.51171875 31.29296875 C-7.50532883 30.60849167 -7.4989389 29.92401459 -7.49235535 29.21879578 C-7.4031576 26.33281425 -7.30525154 24.42432242 -5.59301758 22.04418945 C-4 21 -4 21 -2 21 C-0.36106811 16.30172858 1 11.99861936 1 7 C0.01 6.67 -0.98 6.34 -2 6 C-1.34 4.02 -0.68 2.04 0 0 Z " fill="#0A0406" transform="translate(25,0)"/>
<path d="M0 0 C2.171875 0.37890625 2.171875 0.37890625 4 1 C4.36428777 2.9147688 4.71605306 4.83192293 5.0625 6.75 C5.25972656 7.81734375 5.45695312 8.8846875 5.66015625 9.984375 C5.97680538 12.79418109 5.75848727 14.34828074 5 17 C5.33 17.66 5.66 18.32 6 19 C6.14375422 22.37822416 6.07536348 24.77390955 5 28 C5.33 28.99 5.66 29.98 6 31 C7.64551962 31.71727778 9.31422289 32.38325228 11 33 C13 35 13 35 13.22705078 37.24658203 C13.21657715 38.15778809 13.20610352 39.06899414 13.1953125 40.0078125 C13.18886719 40.99394531 13.18242188 41.98007812 13.17578125 42.99609375 C13.15902344 44.02863281 13.14226562 45.06117187 13.125 46.125 C13.11597656 47.16527344 13.10695313 48.20554688 13.09765625 49.27734375 C13.07403747 51.85179092 13.04110149 54.42578212 13 57 C14.485 57.495 14.485 57.495 16 58 C16 62.29 16 66.58 16 71 C14.515 71.495 14.515 71.495 13 72 C13 79.92 13 87.84 13 96 C11.02 96 9.04 96 7 96 C7 87.09 7 78.18 7 69 C5.68 69 4.36 69 3 69 C3 76.26 3 83.52 3 91 C2.67 91 2.34 91 2 91 C2 82.75 2 74.5 2 66 C4.64 66 7.28 66 10 66 C10 63.03 10 60.06 10 57 C9.01 57 8.02 57 7 57 C6.99589111 56.34926514 6.99178223 55.69853027 6.98754883 55.02807617 C6.95465827 52.08029254 6.88402238 49.13458866 6.8125 46.1875 C6.80669922 45.16333984 6.80089844 44.13917969 6.79492188 43.08398438 C6.71283533 40.30216261 6.58669176 37.72126955 6 35 C3.7610691 32.76038094 3.7610691 32.76038094 1 32 C-2.75353335 29.78637777 -6.38702324 27.43665875 -10 25 C-9.690625 24.29875 -9.38125 23.5975 -9.0625 22.875 C-7.96697322 19.91063343 -7.43577008 17.12301892 -7 14 C-5.68 14 -4.36 14 -3 14 C-2.67 12.68 -2.34 11.36 -2 10 C-1.34 10 -0.68 10 0 10 C0 9.34 0 8.68 0 8 C-0.639375 7.896875 -1.27875 7.79375 -1.9375 7.6875 C-2.618125 7.460625 -3.29875 7.23375 -4 7 C-4.33 6.01 -4.66 5.02 -5 4 C-2.75 1.9375 -2.75 1.9375 0 0 Z " fill="#040102" transform="translate(69,0)"/>
<path d="M0 0 C8 0 8 0 9.99389648 1.34521484 C10.67560913 2.26874756 10.67560913 2.26874756 11.37109375 3.2109375 C11.88220703 3.87867188 12.39332031 4.54640625 12.91992188 5.234375 C13.42072266 5.94078125 13.92152344 6.6471875 14.4375 7.375 C14.96537109 8.07367188 15.49324219 8.77234375 16.03710938 9.4921875 C19.67339829 14.34679657 19.67339829 14.34679657 21 17 C21.33 11.72 21.66 6.44 22 1 C24.64 1 27.28 1 30 1 C30 11.56 30 22.12 30 33 C22 33 22 33 19.1015625 30.26171875 C18.24950194 29.08914624 17.42426479 27.89667712 16.625 26.6875 C16.20089844 26.09259766 15.77679688 25.49769531 15.33984375 24.88476562 C13.50439161 22.29370938 11.76124314 19.64186471 10 17 C9.67 22.28 9.34 27.56 9 33 C6.03 33 3.06 33 0 33 C0 22.11 0 11.22 0 0 Z " fill="#BDBDBD" transform="translate(19,57)"/>
<path d="M0 0 C0.66 0.99 1.32 1.98 2 3 C3.32 3 4.64 3 6 3 C6 11.91 6 20.82 6 30 C-11.82 30 -29.64 30 -48 30 C-48 29.01 -48 28.02 -48 27 C-45.36 27 -42.72 27 -40 27 C-40 22.38 -40 17.76 -40 13 C-39.34 13 -38.68 13 -38 13 C-35.90628349 16.00942988 -33.93205771 19.0812695 -31.97265625 22.1796875 C-28.32012896 26.16035284 -28.32012896 26.16035284 -18 27 C-18 18.75 -18 10.5 -18 2 C-15.36 2.33 -12.72 2.66 -10 3 C-9.505 13.395 -9.505 13.395 -9 24 C-6.03 24 -3.06 24 0 24 C0 16.08 0 8.16 0 0 Z " fill="#712340" transform="translate(70,66)"/>
<path d="M0 0 C8.91 0 17.82 0 27 0 C27 2.64 27 5.28 27 8 C24.03 8 21.06 8 18 8 C18 15.92 18 23.84 18 32 C15.03 32 12.06 32 9 32 C9 24.08 9 16.16 9 8 C6.03 8 3.06 8 0 8 C0 5.36 0 2.72 0 0 Z " fill="#C6C6C6" transform="translate(52,58)"/>
<path d="M0 0 C0.66 0 1.32 0 2 0 C2 1.98 2 3.96 2 6 C4.97 6 7.94 6 11 6 C11 14.25 11 22.5 11 31 C10.67 31 10.34 31 10 31 C10 23.74 10 16.48 10 9 C7.36 8.67 4.72 8.34 2 8 C2 16.25 2 24.5 2 33 C-7.45454545 33 -7.45454545 33 -11 30 C-18 21.97058824 -18 21.97058824 -18 19 C-18.66 19 -19.32 19 -20 19 C-20 23.62 -20 28.24 -20 33 C-22.64 33 -25.28 33 -28 33 C-28.33 33.99 -28.66 34.98 -29 36 C-29 34.68 -29 33.36 -29 32 C-29.66 31.34 -30.32 30.68 -31 30 C-28.03 30 -25.06 30 -22 30 C-22 24.39 -22 18.78 -22 13 C-18.63648778 16.36351222 -15.63842555 19.51412564 -12.6875 23.1875 C-11.99011719 24.04730469 -11.29273437 24.90710938 -10.57421875 25.79296875 C-9 28 -9 28 -9 30 C-6.03 30 -3.06 30 0 30 C0 20.1 0 10.2 0 0 Z " fill="#1B0C12" transform="translate(50,60)"/>
<path d="M0 0 C8.58 0 17.16 0 26 0 C26 2.31 26 4.62 26 7 C17.42 7 8.84 7 0 7 C0 4.69 0 2.38 0 0 Z " fill="#F0F0F0" transform="translate(53,58)"/>
<path d="M0 0 C1.18579147 -0.0049926 1.18579147 -0.0049926 2.39553833 -0.01008606 C4.07179175 -0.0151591 5.74805531 -0.01749427 7.42431641 -0.01733398 C9.99007858 -0.01951617 12.55540799 -0.03765564 15.12109375 -0.05664062 C16.74739436 -0.05957532 18.37369702 -0.06155961 20 -0.0625 C21.15325272 -0.07327827 21.15325272 -0.07327827 22.32980347 -0.08427429 C26.13754474 -0.06794204 27.88642832 0.00371263 31.1328125 2.16796875 C22.2228125 2.16796875 13.3128125 2.16796875 4.1328125 2.16796875 C4.1328125 2.82796875 4.1328125 3.48796875 4.1328125 4.16796875 C3.4728125 4.16796875 2.8128125 4.16796875 2.1328125 4.16796875 C2.1328125 14.06796875 2.1328125 23.96796875 2.1328125 34.16796875 C1.8028125 34.16796875 1.4728125 34.16796875 1.1328125 34.16796875 C1.1328125 23.60796875 1.1328125 13.04796875 1.1328125 2.16796875 C-1.5071875 2.16796875 -4.1471875 2.16796875 -6.8671875 2.16796875 C-6.8671875 7.77796875 -6.8671875 13.38796875 -6.8671875 19.16796875 C-10.48440116 15.55075509 -13.26977434 12.44907539 -16.1796875 8.35546875 C-17.22576172 6.89173828 -17.22576172 6.89173828 -18.29296875 5.3984375 C-18.81246094 4.66238281 -19.33195312 3.92632812 -19.8671875 3.16796875 C-18.8771875 3.16796875 -17.8871875 3.16796875 -16.8671875 3.16796875 C-15.04296875 5.13671875 -15.04296875 5.13671875 -13.1796875 7.66796875 C-12.55707031 8.50328125 -11.93445312 9.33859375 -11.29296875 10.19921875 C-10.82246094 10.84890625 -10.35195313 11.49859375 -9.8671875 12.16796875 C-9.80660156 11.38550781 -9.74601562 10.60304688 -9.68359375 9.796875 C-9.59980469 8.78496094 -9.51601563 7.77304687 -9.4296875 6.73046875 C-9.34847656 5.72113281 -9.26726563 4.71179687 -9.18359375 3.671875 C-8.52735017 -1.52136122 -4.29269233 0.00618076 0 0 Z " fill="#423A3D" transform="translate(47.8671875,55.83203125)"/>
<path d="M0 0 C0.01458252 1.0194873 0.02916504 2.03897461 0.04418945 3.08935547 C0.10208466 6.86543166 0.17931665 10.64090596 0.26245117 14.41650391 C0.29574214 16.05182134 0.32376106 17.68725482 0.34643555 19.32275391 C0.37990628 21.67140243 0.43221436 24.01898337 0.48828125 26.3671875 C0.49786613 27.46726639 0.49786613 27.46726639 0.50764465 28.58956909 C0.53994543 30.87324756 0.53994543 30.87324756 1 34 C1.99 34.66 2.98 35.32 4 36 C3.67 37.32 3.34 38.64 3 40 C2.01 40 1.02 40 0 40 C0 38.68 0 37.36 0 36 C-0.99 35.67 -1.98 35.34 -3 35 C-3 23.78 -3 12.56 -3 1 C-1 0 -1 0 0 0 Z " fill="#020202" transform="translate(18,56)"/>
<path d="M0 0 C0.66 0.99 1.32 1.98 2 3 C4.05925139 3.72382467 4.05925139 3.72382467 6 4 C5.34 4 4.68 4 4 4 C4 11.59 4 19.18 4 27 C1.59454362 28.20272819 0.05003047 28.10071472 -2.625 28.0625 C-3.85089844 28.04896484 -3.85089844 28.04896484 -5.1015625 28.03515625 C-5.72804688 28.02355469 -6.35453125 28.01195313 -7 28 C-7 27.34 -7 26.68 -7 26 C-7.66 26 -8.32 26 -9 26 C-9 25.34 -9 24.68 -9 24 C-6.03 24 -3.06 24 0 24 C0 16.08 0 8.16 0 0 Z " fill="#3F232E" transform="translate(70,66)"/>
<path d="M0 0 C1.79133978 -0.05391993 3.58313899 -0.09275571 5.375 -0.125 C6.37273438 -0.14820312 7.37046875 -0.17140625 8.3984375 -0.1953125 C11 0 11 0 13 2 C13.125 5.625 13.125 5.625 13 9 C7.83405051 9.61290926 7.83405051 9.61290926 5 9 C2.76385711 6.97631724 1.28125697 4.72267106 0 2 C0 1.34 0 0.68 0 0 Z " fill="#EEEEEE" transform="translate(36,81)"/>
<path d="M0 0 C2.64 0.33 5.28 0.66 8 1 C8 1.33 8 1.66 8 2 C6.02 2 4.04 2 2 2 C2.00523682 2.72179443 2.01047363 3.44358887 2.01586914 4.18725586 C2.03657358 7.43732849 2.04963918 10.68738728 2.0625 13.9375 C2.07087891 15.07380859 2.07925781 16.21011719 2.08789062 17.38085938 C2.09111328 18.46044922 2.09433594 19.54003906 2.09765625 20.65234375 C2.10289307 21.65257568 2.10812988 22.65280762 2.11352539 23.68334961 C2 26 2 26 1 27 C-6.29411765 27.23529412 -6.29411765 27.23529412 -10 26 C-10 25.34 -10 24.68 -10 24 C-6.7 24.33 -3.4 24.66 0 25 C0 16.75 0 8.5 0 0 Z " fill="#571B31" transform="translate(52,68)"/>
<path d="M0 0 C0.33 0 0.66 0 1 0 C1 2.31 1 4.62 1 7 C9.58 7 18.16 7 27 7 C27 7.33 27 7.66 27 8 C26.37351562 8.04898438 25.74703125 8.09796875 25.1015625 8.1484375 C24.28429687 8.22320312 23.46703125 8.29796875 22.625 8.375 C21.81289062 8.44460937 21.00078125 8.51421875 20.1640625 8.5859375 C17.79665809 8.82892588 17.79665809 8.82892588 16 11 C14.02 11 12.04 11 10 11 C10 17.93 10 24.86 10 32 C9.67 32 9.34 32 9 32 C9 24.08 9 16.16 9 8 C6.03 8 3.06 8 0 8 C0 5.36 0 2.72 0 0 Z " fill="#A2A2A2" transform="translate(52,58)"/>
<path d="M0 0 C2.64 0 5.28 0 8 0 C8.05399736 1.45792884 8.09279177 2.91642712 8.125 4.375 C8.14820313 5.18710937 8.17140625 5.99921875 8.1953125 6.8359375 C8 9 8 9 6 11 C4.68 11 3.36 11 2 11 C2 10.01 2 9.02 2 8 C1.34 8 0.68 8 0 8 C0 5.36 0 2.72 0 0 Z " fill="#F1F1F1" transform="translate(41,58)"/>
<path d="M0 0 C3.3 0 6.6 0 10 0 C10 0.33 10 0.66 10 1 C7.36 1 4.72 1 2 1 C2 6.61 2 12.22 2 18 C-1.61721366 14.38278634 -4.40258684 11.28110664 -7.3125 7.1875 C-8.35857422 5.72376953 -8.35857422 5.72376953 -9.42578125 4.23046875 C-9.94527344 3.49441406 -10.46476562 2.75835937 -11 2 C-10.01 2 -9.02 2 -8 2 C-6.17578125 3.96875 -6.17578125 3.96875 -4.3125 6.5 C-3.68988281 7.3353125 -3.06726562 8.170625 -2.42578125 9.03125 C-1.95527344 9.6809375 -1.48476563 10.330625 -1 11 C-0.67 7.37 -0.34 3.74 0 0 Z " fill="#3F3639" transform="translate(39,57)"/>
<path d="M0 0 C2.875 -0.125 2.875 -0.125 6 0 C8 2 8 2 8.125 5.625 C8.08375 6.73875 8.0425 7.8525 8 9 C5.36 9 2.72 9 0 9 C0 6.03 0 3.06 0 0 Z " fill="#F2F2F2" transform="translate(62,81)"/>
<path d="M0 0 C5.29284165 -0.34707158 5.29284165 -0.34707158 8 0 C10 1.8125 10 1.8125 11 4 C11 4.99 11 5.98 11 7 C7.37 7 3.74 7 0 7 C0 4.69 0 2.38 0 0 Z " fill="#EDEDED" transform="translate(20,58)"/>
<path d="M0 0 C0 3.3 0 6.6 0 10 C-2.31 10 -4.62 10 -7 10 C-7 7.03 -7 4.06 -7 1 C-1.125 0 -1.125 0 0 0 Z " fill="#F2F2F2" transform="translate(27,80)"/>
<path d="M0 0 C0.99 0.99 1.98 1.98 3 3 C2.67 3.99 2.34 4.98 2 6 C-4.435 6.495 -4.435 6.495 -11 7 C-11 5.35 -11 3.7 -11 2 C-7.37 2 -3.74 2 0 2 C0 1.34 0 0.68 0 0 Z " fill="#D4D4D4" transform="translate(31,63)"/>
<path d="M0 0 C0.66 0 1.32 0 2 0 C2.02685095 2.47923801 2.04676547 4.9581884 2.0625 7.4375 C2.07087891 8.14455078 2.07925781 8.85160156 2.08789062 9.58007812 C2.09653588 11.38693559 2.05220011 13.19387603 2 15 C1 16 1 16 -1.06640625 16.09765625 C-1.89011719 16.08605469 -2.71382812 16.07445313 -3.5625 16.0625 C-4.38878906 16.05347656 -5.21507812 16.04445313 -6.06640625 16.03515625 C-7.02353516 16.01775391 -7.02353516 16.01775391 -8 16 C-8 15.34 -8 14.68 -8 14 C-5.36 14 -2.72 14 0 14 C0 9.38 0 4.76 0 0 Z " fill="#51192D" transform="translate(30,79)"/>
<path d="M0 0 C1.79133978 -0.05391993 3.58313899 -0.09275571 5.375 -0.125 C6.37273438 -0.14820312 7.37046875 -0.17140625 8.3984375 -0.1953125 C11 0 11 0 13 2 C13.125 4.625 13.125 4.625 13 7 C12.34 6.67 11.68 6.34 11 6 C11 5.01 11 4.02 11 3 C6.35413108 3.48484276 6.35413108 3.48484276 2 5 C1.34 3.35 0.68 1.7 0 0 Z " fill="#DCDCDC" transform="translate(36,81)"/>
<path d="M0 0 C3.17462943 2.40242227 5.85751741 4.61713276 8 8 C8 8.66 8 9.32 8 10 C10.97 10 13.94 10 17 10 C17.33 10.66 17.66 11.32 18 12 C14.48385299 12.64846974 11.49582082 12.83186671 8 12 C4.6910863 9.08223584 2.22972482 5.79925179 0 2 C0 1.34 0 0.68 0 0 Z " fill="#241A1E" transform="translate(33,80)"/>
<path d="M0 0 C1.4606285 2.64738916 2 3.89448334 2 7 C3.98 6.34 5.96 5.68 8 5 C7.67 6.65 7.34 8.3 7 10 C5.35 10.33 3.7 10.66 2 11 C2 10.01 2 9.02 2 8 C1.34 8 0.68 8 0 8 C0 5.36 0 2.72 0 0 Z " fill="#DBDBDB" transform="translate(41,58)"/>
<path d="M0 0 C2.875 -0.125 2.875 -0.125 6 0 C8 2 8 2 8.125 4.625 C8.08375 5.40875 8.0425 6.1925 8 7 C7.34 6.67 6.68 6.34 6 6 C6 5.01 6 4.02 6 3 C4.02 3.33 2.04 3.66 0 4 C0 2.68 0 1.36 0 0 Z " fill="#E0E0E0" transform="translate(62,81)"/>
<path d="M0 0 C3.67056937 1.47797262 5.41085783 3.47615477 7.75 6.625 C8.67039062 7.85089844 8.67039062 7.85089844 9.609375 9.1015625 C10.29773438 10.04128906 10.29773438 10.04128906 11 11 C10.34 11.66 9.68 12.32 9 13 C7.49710267 11.02297434 5.99758658 9.0435417 4.5 7.0625 C4.07074219 6.49853516 3.64148438 5.93457031 3.19921875 5.35351562 C0 1.11328125 0 1.11328125 0 0 Z " fill="#332127" transform="translate(28,58)"/>
<path d="M0 0 C1.32 0.33 2.64 0.66 4 1 C3.67 1.33 3.34 1.66 3 2 C3.99 2.33 4.98 2.66 6 3 C6 4.32 6 5.64 6 7 C5.01 7 4.02 7 3 7 C3 6.01 3 5.02 3 4 C2.01 4.33 1.02 4.66 0 5 C0 3.35 0 1.7 0 0 Z " fill="#33101D" transform="translate(62,14)"/>
<path d="M0 0 C0.33 1.32 0.66 2.64 1 4 C-1.6666419 5.33332095 -3.16680303 4.67102033 -6 4 C-6 3.01 -6 2.02 -6 1 C-4.02 0.67 -2.04 0.34 0 0 Z " fill="#DDDDDD" transform="translate(26,80)"/>
<path d="M0 0 C2.31 0 4.62 0 7 0 C6.67 0.99 6.34 1.98 6 3 C4.02 3 2.04 3 0 3 C0 2.01 0 1.02 0 0 Z " fill="#631F38" transform="translate(28,2)"/>
<path d="M0 0 C3.63094642 2.64960955 5.89851796 5.01824456 8 9 C7.01 9.495 7.01 9.495 6 10 C4.99421411 8.71283353 3.99553202 7.42011342 3 6.125 C2.443125 5.40570313 1.88625 4.68640625 1.3125 3.9453125 C0 2 0 2 0 0 Z " fill="#302227" transform="translate(33,80)"/>
<path d="M0 0 C2.4164124 0.48328248 4.65832183 1.21944061 7 2 C6.67 2.66 6.34 3.32 6 4 C3.625 4.1875 3.625 4.1875 1 4 C0.34 3.01 -0.32 2.02 -1 1 C-0.67 0.67 -0.34 0.34 0 0 Z " fill="#35101D" transform="translate(62,6)"/>
</svg>
