<?xml version="1.0" encoding="UTF-8"?>
<svg version="1.1" xmlns="http://www.w3.org/2000/svg" width="48" height="48">
<path d="M0 0 C1.65 0 3.3 0 5 0 C6.76462683 3.08809695 7 4.23312136 7 8 C7.99 8.33 8.98 8.66 10 9 C11.39044898 12.87862084 12 15.86462003 12 20 C14.47761118 21.38746226 16.67313178 22.1835814 19.4375 22.9375 C24.31763134 24.39297777 27.15639456 25.73459184 30 30 C30.6196186 34.67530398 30.29261157 38.97585951 29 43.5 C26.21205631 46.98492961 23.24148149 47.37405276 19 48 C14.10156013 48.35108272 9.22222513 48.4154833 4.3125 48.4375 C3.00732422 48.47037109 1.70214844 48.50324219 0.35742188 48.53710938 C-1.52686523 48.54774414 -1.52686523 48.54774414 -3.44921875 48.55859375 C-5.15597778 48.57877563 -5.15597778 48.57877563 -6.8972168 48.59936523 C-10.96234935 47.81410279 -12.42658565 46.17044414 -15 43 C-16.7678002 37.69659939 -16.92680499 32.06424747 -14.625 26.9375 C-13 25 -13 25 -11 24 C-10.5316735 21.41394668 -10.5316735 21.41394668 -10.375 18.4375 C-10.30023437 17.42558594 -10.22546875 16.41367187 -10.1484375 15.37109375 C-10.09945313 14.58863281 -10.05046875 13.80617188 -10 13 C-5.25 11.875 -5.25 11.875 -3 13 C-2.95101563 12.39671875 -2.90203125 11.7934375 -2.8515625 11.171875 C-2.77679688 10.37265625 -2.70203125 9.5734375 -2.625 8.75 C-2.55539062 7.96109375 -2.48578125 7.1721875 -2.4140625 6.359375 C-1.98492887 3.914123 -1.21399362 2.15163097 0 0 Z " fill="#050404" transform="translate(17,0)"/>
<path d="M0 0 C0.66 0 1.32 0 2 0 C2.33 2.64 2.66 5.28 3 8 C3.99 8.33 4.98 8.66 6 9 C6.14695312 10.03060547 6.14695312 10.03060547 6.296875 11.08203125 C6.44640625 11.98308594 6.5959375 12.88414063 6.75 13.8125 C6.88921875 14.70582031 7.0284375 15.59914063 7.171875 16.51953125 C7.77473586 19.15481251 7.77473586 19.15481251 10.09375 20.4375 C11.03734375 21.2109375 11.03734375 21.2109375 12 22 C12.171875 24.91796875 12.171875 24.91796875 11.75 28.1875 C11.62109375 29.27417969 11.4921875 30.36085938 11.359375 31.48046875 C11.24078125 32.31191406 11.1221875 33.14335938 11 34 C10.01 34 9.02 34 8 34 C7.505 29.05 7.505 29.05 7 24 C5.02 24 3.04 24 1 24 C0.34 25.32 -0.32 26.64 -1 28 C-1.33 27.01 -1.66 26.02 -2 25 C-3.87387216 24.19787372 -3.87387216 24.19787372 -6.0625 23.8125 C-7.361875 23.544375 -8.66125 23.27625 -10 23 C-10 19.7 -10 16.4 -10 13 C-9.030625 13.185625 -8.06125 13.37125 -7.0625 13.5625 C-6.051875 13.706875 -5.04125 13.85125 -4 14 C-2.28650715 12.28650715 -2.38813769 9.89435845 -2 7.5625 C-1.10763209 2.21526419 -1.10763209 2.21526419 0 0 Z " fill="#F25252" transform="translate(19,2)"/>
<path d="M0 0 C2.99918134 0.82477487 4.66528667 2.16064521 6.5625 4.62109375 C8.43344671 8.74497213 7.85403461 13.2660011 7.5 17.6875 C3.50319208 18.82694085 0.57746631 18.70686658 -3.5 17.6875 C-6.64674823 14.94418103 -7.39954133 13.31257614 -8.0625 9.1875 C-7.25146598 4.14106607 -5.0053892 1.37648203 0 0 Z " fill="#B6B6B6" transform="translate(10.5,25.3125)"/>
<path d="M0 0 C8.26698451 -0.60786651 8.26698451 -0.60786651 11.5625 2.125 C13.26523868 5.53047736 13.70338515 7.24861252 13 11 C11 13.875 11 13.875 8 16 C5.36 16 2.72 16 0 16 C0 10.72 0 5.44 0 0 Z " fill="#B8B8B8" transform="translate(32,27)"/>
<path d="M0 0 C1.65 0 3.3 0 5 0 C5 3.63 5 7.26 5 11 C6.65 11 8.3 11 10 11 C10 12.65 10 14.3 10 16 C6.7 16 3.4 16 0 16 C0 10.72 0 5.44 0 0 Z " fill="#CBCBCB" transform="translate(20,27)"/>
<path d="M0 0 C0.33 0 0.66 0 1 0 C1 2.64 1 5.28 1 8 C1.84763916 7.9388501 1.84763916 7.9388501 2.71240234 7.87646484 C5.26597672 7.69838179 7.8203257 7.5365024 10.375 7.375 C11.26445312 7.31054688 12.15390625 7.24609375 13.0703125 7.1796875 C14.34648437 7.10234375 14.34648437 7.10234375 15.6484375 7.0234375 C16.82672119 6.94488525 16.82672119 6.94488525 18.02880859 6.86474609 C20 7 20 7 22 9 C21.9765625 11.8203125 21.9765625 11.8203125 21.625 15.125 C21.45871094 16.76855469 21.45871094 16.76855469 21.2890625 18.4453125 C21.14597656 19.70988281 21.14597656 19.70988281 21 21 C20.01 21 19.02 21 18 21 C17.505 16.05 17.505 16.05 17 11 C15.02 11 13.04 11 11 11 C10.34 12.32 9.68 13.64 9 15 C8.67 14.01 8.34 13.02 8 12 C6.12612784 11.19787372 6.12612784 11.19787372 3.9375 10.8125 C2.638125 10.544375 1.33875 10.27625 0 10 C0 6.7 0 3.4 0 0 Z " fill="#F12424" transform="translate(9,15)"/>
<path d="M0 0 C2.3125 1.6875 2.3125 1.6875 4 4 C4.25 6.75 4.25 6.75 4 9 C2.35 8.67 0.7 8.34 -1 8 C-1 7.34 -1 6.68 -1 6 C-4.11785113 6.64644661 -4.11785113 6.64644661 -5 9 C-6.32 9 -7.64 9 -9 9 C-8.6875 5.625 -8.6875 5.625 -8 2 C-4.75173326 -0.16551116 -3.76905843 -0.55156953 0 0 Z " fill="#F3F3F3" transform="translate(13,26)"/>
<path d="M0 0 C1.43655854 -0.08131463 2.8744483 -0.13933559 4.3125 -0.1875 C5.51326172 -0.23970703 5.51326172 -0.23970703 6.73828125 -0.29296875 C9 0 9 0 10.78125 1.34375 C12.44546615 3.60537707 12.22189312 5.26331821 12 8 C8 8 8 8 6.25 6.5 C5.8375 6.005 5.425 5.51 5 5 C5 5.99 5 6.98 5 8 C3.35 8 1.7 8 0 8 C0 5.36 0 2.72 0 0 Z " fill="#FAFAFA" transform="translate(32,27)"/>
<path d="M0 0 C1.99954746 -0.04254356 4.00041636 -0.04080783 6 0 C7 1 7 1 7.09765625 3.28515625 C7.08605469 4.20167969 7.07445312 5.11820313 7.0625 6.0625 C7.05347656 6.98160156 7.04445313 7.90070312 7.03515625 8.84765625 C7.02355469 9.55792969 7.01195312 10.26820312 7 11 C7.99 11 8.98 11 10 11 C10 8.03 10 5.06 10 2 C10.33 2 10.66 2 11 2 C11.02688151 3.64574566 11.04634123 5.29161413 11.0625 6.9375 C11.07410156 7.85402344 11.08570313 8.77054688 11.09765625 9.71484375 C11 12 11 12 10 13 C8.35 13 6.7 13 5 13 C5 9.37 5 5.74 5 2 C3.35 2 1.7 2 0 2 C0 1.34 0 0.68 0 0 Z " fill="#4C2020" transform="translate(20,25)"/>
<path d="M0 0 C0.33 0 0.66 0 1 0 C1 2.64 1 5.28 1 8 C1.66386719 7.98839844 2.32773438 7.97679687 3.01171875 7.96484375 C11.78207381 7.87521968 11.78207381 7.87521968 16 9 C16 9.33 16 9.66 16 10 C15.21625 10.0825 14.4325 10.165 13.625 10.25 C10.85250896 10.72806339 10.85250896 10.72806339 9.6875 13.0625 C9.3471875 14.0215625 9.3471875 14.0215625 9 15 C8.67 14.01 8.34 13.02 8 12 C6.12612784 11.19787372 6.12612784 11.19787372 3.9375 10.8125 C2.638125 10.544375 1.33875 10.27625 0 10 C0 6.7 0 3.4 0 0 Z " fill="#C51E1E" transform="translate(9,15)"/>
<path d="M0 0 C3.875 1.75 3.875 1.75 5 4 C5.66 3.01 6.32 2.02 7 1 C7 6.28 7 11.56 7 17 C6.34 17.33 5.68 17.66 5 18 C4.33728754 15.18347205 4.00586136 12.90621818 4.1875 10 C3.94883021 6.18128332 2.49176008 4.80323009 0 2 C0 1.34 0 0.68 0 0 Z " fill="#150D0D" transform="translate(13,25)"/>
<path d="M0 0 C1.32 0 2.64 0 4 0 C4 2.64 4 5.28 4 8 C2.68 8 1.36 8 0 8 C0 5.36 0 2.72 0 0 Z " fill="#FCFCFC" transform="translate(21,27)"/>
</svg>
