<?xml version="1.0" encoding="UTF-8"?>
<svg version="1.1" xmlns="http://www.w3.org/2000/svg" width="48" height="48">
<path d="M0 0 C5.53588533 -0.02464775 11.071739 -0.04283496 16.60766602 -0.05493164 C18.4924373 -0.05997244 20.37720465 -0.06680498 22.26196289 -0.07543945 C24.96501636 -0.08751617 27.66801831 -0.09323068 30.37109375 -0.09765625 C31.21900986 -0.10281754 32.06692596 -0.10797882 32.9405365 -0.11329651 C34.96071068 -0.11349195 36.98077934 -0.06206211 39 0 C40.76276308 1.76276308 40.13028484 4.27134101 40.1328125 6.66015625 C40.13482666 7.83980957 40.13684082 9.01946289 40.13891602 10.23486328 C40.13432373 11.4979834 40.12973145 12.76110352 40.125 14.0625 C40.12234131 15.33335449 40.11968262 16.60420898 40.11694336 17.91357422 C39.99060162 43.01879675 39.99060162 43.01879675 38 47 C37.33097656 46.91621094 36.66195312 46.83242188 35.97265625 46.74609375 C28.75981655 45.98124229 21.90248813 46.10335108 14.70141602 46.76928711 C9.31278975 47.2085265 9.31278975 47.2085265 6 45 C4.45915567 38.96502636 5.27991937 33.12622443 6 27 C4.35 26.67 2.7 26.34 1 26 C-0.01973129 22.94080612 -0.11533602 20.87581975 -0.09765625 17.67578125 C-0.09443359 16.64775391 -0.09121094 15.61972656 -0.08789062 14.56054688 C-0.07951172 13.48869141 -0.07113281 12.41683594 -0.0625 11.3125 C-0.05798828 10.22904297 -0.05347656 9.14558594 -0.04882812 8.02929688 C-0.03703743 5.35280915 -0.02058063 2.67643223 0 0 Z " fill="#040803" transform="translate(3,1)"/>
<path d="M0 0 C4.16259361 -0.0248456 8.32514713 -0.04292862 12.48779297 -0.05493164 C13.90186313 -0.0599392 15.31592816 -0.06674718 16.72998047 -0.07543945 C18.77052073 -0.08766256 20.81099212 -0.0932642 22.8515625 -0.09765625 C24.68968506 -0.10551147 24.68968506 -0.10551147 26.56494141 -0.11352539 C29.80432849 -0.00646676 32.82183197 0.38521382 36 1 C36.28670413 14.79365444 35.46568726 28.28451966 34 42 C33.67 42 33.34 42 33 42 C32.72285156 40.79601563 32.44570313 39.59203125 32.16015625 38.3515625 C31.79440321 36.77601093 31.42851055 35.20049177 31.0625 33.625 C30.88009766 32.8309375 30.69769531 32.036875 30.50976562 31.21875 C30.33251953 30.45820312 30.15527344 29.69765625 29.97265625 28.9140625 C29.72914429 27.8614624 29.72914429 27.8614624 29.48071289 26.78759766 C29.0411926 24.91605426 29.0411926 24.91605426 28 23 C25.69 23 23.38 23 21 23 C20.67 24.32 20.34 25.64 20 27 C19.34 27 18.68 27 18 27 C17.41798828 25.81857422 17.41798828 25.81857422 16.82421875 24.61328125 C15.16451054 21.6869656 15.16451054 21.6869656 11.64453125 20.85546875 C10.37996094 20.63503906 9.11539062 20.41460938 7.8125 20.1875 C6.54019531 19.95417969 5.26789062 19.72085937 3.95703125 19.48046875 C2.98121094 19.32191406 2.00539063 19.16335937 1 19 C0.1757443 12.61201836 -0.05637294 6.43747651 0 0 Z " fill="#84F94C" transform="translate(5,3)"/>
<path d="M0 0 C0.33 0 0.66 0 1 0 C1.28670413 13.79365444 0.46568726 27.28451966 -1 41 C-1.33 41 -1.66 41 -2 41 C-2.27714844 39.79601563 -2.55429687 38.59203125 -2.83984375 37.3515625 C-3.20559679 35.77601093 -3.57148945 34.20049177 -3.9375 32.625 C-4.11990234 31.8309375 -4.30230469 31.036875 -4.49023438 30.21875 C-4.66748047 29.45820312 -4.84472656 28.69765625 -5.02734375 27.9140625 C-5.27085571 26.8614624 -5.27085571 26.8614624 -5.51928711 25.78759766 C-5.9588074 23.91605426 -5.9588074 23.91605426 -7 22 C-9.31 22 -11.62 22 -14 22 C-14.33 23.32 -14.66 24.64 -15 26 C-15.66 26 -16.32 26 -17 26 C-17.391875 25.21625 -17.78375 24.4325 -18.1875 23.625 C-20.62451318 20.09553263 -22.90626822 19.84964244 -27 19 C-27 18.67 -27 18.34 -27 18 C-18.09 18 -9.18 18 0 18 C0 12.06 0 6.12 0 0 Z " fill="#56E015" transform="translate(40,4)"/>
<path d="M0 0 C1.98 0 3.96 0 6 0 C7.32 5.28 8.64 10.56 10 16 C8.02 16 6.04 16 4 16 C4 15.34 4 14.68 4 14 C3.01 14 2.02 14 1 14 C1 14.66 1 15.32 1 16 C-0.98 16 -2.96 16 -5 16 C-4.35828555 13.51969902 -3.71184679 11.04080278 -3.0625 8.5625 C-2.78889648 7.50192383 -2.78889648 7.50192383 -2.50976562 6.41992188 C-1.11328125 1.11328125 -1.11328125 1.11328125 0 0 Z " fill="#CCCCCC" transform="translate(27,27)"/>
<path d="M0 0 C-0.33 1.65 -0.66 3.3 -1 5 C-1.99 4.67 -2.98 4.34 -4 4 C-4 4.66 -4 5.32 -4 6 C-3.0409375 6.2165625 -3.0409375 6.2165625 -2.0625 6.4375 C0 7 0 7 1 8 C1.28792759 10.73531209 1.34443368 12.41243666 -0.0625 14.8125 C-2.99268751 16.60842137 -5.6472953 16.18977574 -9 16 C-9.33 14.35 -9.66 12.7 -10 11 C-9.01 10.67 -8.02 10.34 -7 10 C-7.495 9.608125 -7.99 9.21625 -8.5 8.8125 C-10 7 -10 7 -10.375 4.5 C-10 2 -10 2 -8.9375 0.125 C-5.88430685 -1.64782183 -3.33588292 -0.69235306 0 0 Z " fill="#CDCDCD" transform="translate(21,27)"/>
<path d="M0 0 C2.31 0 4.62 0 7 0 C9.45946923 5.25432063 10.90301833 10.30860098 12 16 C11.34 16.33 10.68 16.66 10 17 C9.49564306 15.0636296 8.99666126 13.12585854 8.5 11.1875 C8.2215625 10.10855469 7.943125 9.02960937 7.65625 7.91796875 C7 5 7 5 7 2 C5.02 2.33 3.04 2.66 1 3 C-0.32 7.62 -1.64 12.24 -3 17 C-5 15 -5 15 -5.125 12.375 C-5.08375 11.59125 -5.0425 10.8075 -5 10 C-6.32 9.34 -7.64 8.68 -9 8 C-9 7.34 -9 6.68 -9 6 C-8.01 5.67 -7.02 5.34 -6 5 C-5.67 4.01 -5.34 3.02 -5 2 C-4.34 2 -3.68 2 -3 2 C-3 2.99 -3 3.98 -3 5 C-2.34 5 -1.68 5 -1 5 C-0.67 3.35 -0.34 1.7 0 0 Z " fill="#1E2A18" transform="translate(26,25)"/>
<path d="M0 0 C2.31 0 4.62 0 7 0 C7.11044961 6.73742646 6.70132913 13.29980211 6 20 C5.67 20 5.34 20 5 20 C4.72285156 18.80761719 4.44570313 17.61523438 4.16015625 16.38671875 C3.79434477 14.82029523 3.42845529 13.25388993 3.0625 11.6875 C2.88009766 10.90181641 2.69769531 10.11613281 2.50976562 9.30664062 C2.33251953 8.54931641 2.15527344 7.79199219 1.97265625 7.01171875 C1.81031494 6.31522217 1.64797363 5.61872559 1.48071289 4.90112305 C1.06234435 3.2465594 0.53968631 1.61905892 0 0 Z " fill="#42D200" transform="translate(33,25)"/>
<path d="M0 0 C-0.33 1.65 -0.66 3.3 -1 5 C-1.99 4.67 -2.98 4.34 -4 4 C-4 4.66 -4 5.32 -4 6 C-3.34 6.33 -2.68 6.66 -2 7 C-4.64 7 -7.28 7 -10 7 C-10.22111261 4.27294446 -10.30361625 2.53579338 -8.9375 0.125 C-5.88430685 -1.64782183 -3.33588292 -0.69235306 0 0 Z " fill="#E8E8E8" transform="translate(21,27)"/>
<path d="M0 0 C1.4540625 0.0309375 1.4540625 0.0309375 2.9375 0.0625 C3.2675 2.3725 3.5975 4.6825 3.9375 7.0625 C1.2975 6.7325 -1.3425 6.4025 -4.0625 6.0625 C-4.105221 4.39638095 -4.10313832 2.72867115 -4.0625 1.0625 C-3.0625 0.0625 -3.0625 0.0625 0 0 Z " fill="#F6F6F6" transform="translate(30.0625,26.9375)"/>
</svg>
