<?xml version="1.0" encoding="UTF-8"?>
<svg version="1.1" xmlns="http://www.w3.org/2000/svg" width="48" height="48">
<path d="M0 0 C5.31396612 -0.72463174 7.94433209 0.404794 12.5625 3.125 C20.54606822 7.41843026 27.3785281 5.44281817 35.78515625 3.28515625 C36.51605469 3.19105469 37.24695312 3.09695313 38 3 C40.46519809 5.46519809 40.25500314 6.88955563 40.30354309 10.25653076 C40.30263168 10.97109436 40.30172028 11.68565796 40.30078125 12.421875 C40.30506638 13.15948059 40.3093515 13.89708618 40.31376648 14.65704346 C40.31951489 16.22057062 40.32000627 17.78412453 40.31567383 19.34765625 C40.31253034 21.72703542 40.33590696 24.10515117 40.36132812 26.484375 C40.3636029 28.00520677 40.36430379 29.52604187 40.36328125 31.046875 C40.372491 31.75334167 40.38170074 32.45980835 40.39118958 33.18768311 C40.34812406 37.84627893 39.46809918 41.04833366 37 45 C34.53162366 46.23418817 32.88362688 46.12931424 30.125 46.1328125 C29.13886719 46.13410156 28.15273438 46.13539062 27.13671875 46.13671875 C25.58404297 46.13091797 25.58404297 46.13091797 24 46.125 C22.49373047 46.13080078 22.49373047 46.13080078 20.95703125 46.13671875 C7.08850445 46.11877758 7.08850445 46.11877758 2 45 C0.39274365 41.78548731 0.94251815 38.56387464 1 35 C0.34 35 -0.32 35 -1 35 C-1.96070434 32.11788698 -2.10581883 30.30149956 -2.0625 27.3125 C-2.05347656 26.50425781 -2.04445312 25.69601563 -2.03515625 24.86328125 C-2.02355469 24.24839844 -2.01195312 23.63351563 -2 23 C-0.35 22.67 1.3 22.34 3 22 C2.71125 21.31035156 2.4225 20.62070312 2.125 19.91015625 C-0.36399862 13.6098785 -1.5372644 8.7695314 -1 2 C-0.67 1.34 -0.34 0.68 0 0 Z " fill="#B3B3B3" transform="translate(5,2)"/>
<path d="M0 0 C5.31396612 -0.72463174 7.94433209 0.404794 12.5625 3.125 C20.54606822 7.41843026 27.3785281 5.44281817 35.78515625 3.28515625 C36.51605469 3.19105469 37.24695312 3.09695313 38 3 C40.46519809 5.46519809 40.25500314 6.88955563 40.30354309 10.25653076 C40.30263168 10.97109436 40.30172028 11.68565796 40.30078125 12.421875 C40.30506638 13.15948059 40.3093515 13.89708618 40.31376648 14.65704346 C40.31951489 16.22057062 40.32000627 17.78412453 40.31567383 19.34765625 C40.31253034 21.72703542 40.33590696 24.10515117 40.36132812 26.484375 C40.3636029 28.00520677 40.36430379 29.52604187 40.36328125 31.046875 C40.372491 31.75334167 40.38170074 32.45980835 40.39118958 33.18768311 C40.34812406 37.84627893 39.46809918 41.04833366 37 45 C34.53162366 46.23418817 32.88362688 46.12931424 30.125 46.1328125 C29.13886719 46.13410156 28.15273438 46.13539062 27.13671875 46.13671875 C25.58404297 46.13091797 25.58404297 46.13091797 24 46.125 C22.49373047 46.13080078 22.49373047 46.13080078 20.95703125 46.13671875 C7.08850445 46.11877758 7.08850445 46.11877758 2 45 C0.39274365 41.78548731 0.94251815 38.56387464 1 35 C0.34 35 -0.32 35 -1 35 C-1.96070434 32.11788698 -2.10581883 30.30149956 -2.0625 27.3125 C-2.05347656 26.50425781 -2.04445312 25.69601563 -2.03515625 24.86328125 C-2.02355469 24.24839844 -2.01195312 23.63351563 -2 23 C-0.35 22.67 1.3 22.34 3 22 C2.71125 21.31035156 2.4225 20.62070312 2.125 19.91015625 C-0.36399862 13.6098785 -1.5372644 8.7695314 -1 2 C-0.67 1.34 -0.34 0.68 0 0 Z M2 2 C0.2581078 8.67725343 2.21211957 12.87257376 5 19 C5.67424996 20.6636133 6.34308214 22.32946681 7 24 C5.02 24 3.04 24 1 24 C1 25.98 1 27.96 1 30 C1.66 30 2.32 30 3 30 C3 33.63 3 37.26 3 41 C4.98 41 6.96 41 9 41 C9.33 39.35 9.66 37.7 10 36 C10.66 36 11.32 36 12 36 C11.505 38.475 11.505 38.475 11 41 C12.98 41 14.96 41 17 41 C17 40.34 17 39.68 17 39 C17.99 39 18.98 39 20 39 C20 39.66 20 40.32 20 41 C22.45862401 41.05383848 24.9160755 41.09359038 27.375 41.125 C28.07367188 41.14175781 28.77234375 41.15851562 29.4921875 41.17578125 C31.32897486 41.19344267 33.16601963 41.10303261 35 41 C37.41121859 39.04366025 37.41121859 39.04366025 37.125 35.375 C37.08375 34.26125 37.0425 33.1475 37 32 C35.68 31.34 34.36 30.68 33 30 C33.99 30 34.98 30 36 30 C38.13480153 22.26134446 38.20483028 14.99976044 38 7 C37.01 6.67 36.02 6.34 35 6 C34.34 6.33 33.68 6.66 33 7 C24.38958528 9.22779165 18.60050867 10.02269777 10.75 5.625 C9.71359375 4.95726562 8.6771875 4.28953125 7.609375 3.6015625 C5.08414329 1.73844976 5.08414329 1.73844976 2 2 Z " fill="#080808" transform="translate(5,2)"/>
<path d="M0 0 C-0.33 1.65 -0.66 3.3 -1 5 C-1.99 5 -2.98 5 -4 5 C-2.68 5.66 -1.36 6.32 0 7 C0.125 10.375 0.125 10.375 0 14 C-2 16 -2 16 -5.4765625 16.1953125 C-6.85950968 16.18201493 -8.24238654 16.15816232 -9.625 16.125 C-10.68460938 16.11146484 -10.68460938 16.11146484 -11.765625 16.09765625 C-13.51056098 16.07407603 -15.25532295 16.03820461 -17 16 C-17 15.34 -17 14.68 -17 14 C-17.99 14 -18.98 14 -20 14 C-20 14.66 -20 15.32 -20 16 C-21.98 16 -23.96 16 -26 16 C-25.54762239 14.08191891 -25.08785537 12.16557967 -24.625 10.25 C-24.24214844 8.64898437 -24.24214844 8.64898437 -23.8515625 7.015625 C-23.12466459 4.44147278 -22.2973776 2.32399814 -21 0 C-19.02 0 -17.04 0 -15 0 C-14.49487756 1.60256108 -13.99608373 3.20711792 -13.5 4.8125 C-13.2215625 5.70582031 -12.943125 6.59914063 -12.65625 7.51953125 C-12 10 -12 10 -12 13 C-11.34 13 -10.68 13 -10 13 C-9.40929986 11.05396726 -9.40929986 11.05396726 -9 9 C-9.33 8.67 -9.66 8.34 -10 8 C-10.26587831 4.94239943 -10.43409881 2.79159195 -8.9375 0.0625 C-5.87530347 -1.61676907 -3.30629059 -0.68621125 0 0 Z " fill="#C9C9C9" transform="translate(42,27)"/>
<path d="M0 0 C0 1.32 0 2.64 0 4 C0.66 4 1.32 4 2 4 C2.33 2.35 2.66 0.7 3 -1 C6.3125 -1.25 6.3125 -1.25 10 -1 C11.9375 1 11.9375 1 13 3 C13.53625 2.34 14.0725 1.68 14.625 1 C17 -1 17 -1 20.25 -1.25 C21.61125 -1.12625 21.61125 -1.12625 23 -1 C23 -0.67 23 -0.34 23 0 C22.030625 0.309375 21.06125 0.61875 20.0625 0.9375 C17.15934208 1.69523342 17.15934208 1.69523342 16 3 C15.75266863 7.14276875 15.75266863 7.14276875 17 11 C16.34 11 15.68 11 15 11 C15 11.99 15 12.98 15 14 C14.34 14 13.68 14 13 14 C12.49487756 12.39743892 11.99608373 10.79288208 11.5 9.1875 C11.2215625 8.29417969 10.943125 7.40085937 10.65625 6.48046875 C10 4 10 4 10 1 C8.02 1.33 6.04 1.66 4 2 C3.7525 3.093125 3.505 4.18625 3.25 5.3125 C1.90488387 9.28059259 1.21770248 9.71646921 -2 12 C-2.8042208 14.59855733 -2.8042208 14.59855733 -3 17 C-4.98 17 -6.96 17 -9 17 C-9 13.37 -9 9.74 -9 6 C-9.66 6 -10.32 6 -11 6 C-11 4.02 -11 2.04 -11 0 C-6.98195309 -0.84098656 -3.98196457 -1.05404945 0 0 Z " fill="#353535" transform="translate(17,26)"/>
<path d="M0 0 C3.3 0 6.6 0 10 0 C10 1.65 10 3.3 10 5 C9.01 5 8.02 5 7 5 C7 8.63 7 12.26 7 16 C5.35 16 3.7 16 2 16 C2 12.37 2 8.74 2 5 C1.34 5 0.68 5 0 5 C0 3.35 0 1.7 0 0 Z " fill="#F7F7F7" transform="translate(6,27)"/>
<path d="M0 0 C9.9 0 19.8 0 30 0 C29.67 0.99 29.34 1.98 29 3 C27.948125 2.7525 26.89625 2.505 25.8125 2.25 C21.94633751 1.6110158 21.94633751 1.6110158 19.0625 3.9375 C18.381875 4.618125 17.70125 5.29875 17 6 C16.34 4.68 15.68 3.36 15 2 C12.69 2 10.38 2 8 2 C7.67 3.32 7.34 4.64 7 6 C6.34 6 5.68 6 5 6 C4.87625 5.071875 4.87625 5.071875 4.75 4.125 C4.08785794 1.46510021 4.08785794 1.46510021 0 0 Z " fill="#7B7B7B" transform="translate(12,24)"/>
<path d="M0 0 C2.3125 -0.25 2.3125 -0.25 5 0 C6.8125 2 6.8125 2 8 4 C8.53625 3.34 9.0725 2.68 9.625 2 C12 0 12 0 15.25 -0.25 C16.1575 -0.1675 17.065 -0.085 18 0 C18 0.33 18 0.66 18 1 C17.030625 1.309375 16.06125 1.61875 15.0625 1.9375 C12.15934208 2.69523342 12.15934208 2.69523342 11 4 C10.75266863 8.14276875 10.75266863 8.14276875 12 12 C11.34 12 10.68 12 10 12 C10 12.99 10 13.98 10 15 C9.34 15 8.68 15 8 15 C7.75765625 14.08476563 7.5153125 13.16953125 7.265625 12.2265625 C6.93046875 11.03804687 6.5953125 9.84953125 6.25 8.625 C5.92515625 7.44164062 5.6003125 6.25828125 5.265625 5.0390625 C4.29342499 1.90769708 4.29342499 1.90769708 1.859375 0.5859375 C1.24578125 0.39257812 0.6321875 0.19921875 0 0 Z " fill="#1D1D1D" transform="translate(22,25)"/>
<path d="M0 0 C-0.33 1.65 -0.66 3.3 -1 5 C-1.99 5 -2.98 5 -4 5 C-3.34 5.66 -2.68 6.32 -2 7 C-4.64 7 -7.28 7 -10 7 C-10.22111261 4.27294446 -10.30361625 2.53579338 -8.9375 0.125 C-5.88430685 -1.64782183 -3.33588292 -0.69235306 0 0 Z " fill="#F1F1F1" transform="translate(42,27)"/>
<path d="M0 0 C1.4540625 0.0309375 1.4540625 0.0309375 2.9375 0.0625 C3.2675 2.3725 3.5975 4.6825 3.9375 7.0625 C1.2975 6.7325 -1.3425 6.4025 -4.0625 6.0625 C-4.105221 4.39638095 -4.10313832 2.72867115 -4.0625 1.0625 C-3.0625 0.0625 -3.0625 0.0625 0 0 Z " fill="#F6F6F6" transform="translate(24.0625,26.9375)"/>
<path d="M0 0 C1.65 0 3.3 0 5 0 C5 2.97 5 5.94 5 9 C3.35 9 1.7 9 0 9 C0 6.03 0 3.06 0 0 Z " fill="#D8D8D8" transform="translate(8,34)"/>
</svg>
