<?xml version="1.0" encoding="UTF-8"?>
<svg version="1.1" xmlns="http://www.w3.org/2000/svg" width="48" height="48">
<path d="M0 0 C1.91015625 0.1328125 1.91015625 0.1328125 3.91015625 1.1328125 C3.91015625 2.1228125 3.91015625 3.1128125 3.91015625 4.1328125 C4.69390625 4.2153125 5.47765625 4.2978125 6.28515625 4.3828125 C8.91015625 5.1328125 8.91015625 5.1328125 10.09765625 7.1328125 C10.36578125 7.7928125 10.63390625 8.4528125 10.91015625 9.1328125 C11.57015625 9.4628125 12.23015625 9.7928125 12.91015625 10.1328125 C12.91015625 10.7928125 12.91015625 11.4528125 12.91015625 12.1328125 C14.61171875 12.349375 14.61171875 12.349375 16.34765625 12.5703125 C17.07210938 12.66699219 17.7965625 12.76367188 18.54296875 12.86328125 C20.13671299 13.04474718 21.73754238 13.17138838 23.33984375 13.24609375 C25.62466042 13.37718979 27.6975092 13.54367274 29.91015625 14.1328125 C31.97919679 16.57804223 32.91015625 17.92372369 32.91015625 21.1328125 C33.50828125 21.4215625 34.10640625 21.7103125 34.72265625 22.0078125 C36.91015625 23.1328125 36.91015625 23.1328125 39.91015625 25.1328125 C39.58015625 27.4428125 39.25015625 29.7528125 38.91015625 32.1328125 C36.93015625 32.6278125 36.93015625 32.6278125 34.91015625 33.1328125 C34.95140625 34.2053125 34.99265625 35.2778125 35.03515625 36.3828125 C34.92157375 39.79028735 34.69742261 41.34020881 32.91015625 44.1328125 C26.51015625 44.50204327 26.51015625 44.50204327 23.47265625 42.6328125 C22.95703125 42.1378125 22.44140625 41.6428125 21.91015625 41.1328125 C21.58015625 41.7928125 21.25015625 42.4528125 20.91015625 43.1328125 C18.27015625 43.1328125 15.63015625 43.1328125 12.91015625 43.1328125 C12.25015625 41.8128125 11.59015625 40.4928125 10.91015625 39.1328125 C10.25015625 40.4528125 9.59015625 41.7728125 8.91015625 43.1328125 C6.27015625 43.1328125 3.63015625 43.1328125 0.91015625 43.1328125 C0.75160156 42.50632813 0.59304688 41.87984375 0.4296875 41.234375 C-0.27551285 38.76422572 -0.99884498 36.46027654 -2.08984375 34.1328125 C-4.59979871 32.69358051 -4.59979871 32.69358051 -7.08984375 32.1328125 C-8.37938275 28.2641955 -8.238172 24.60036925 -8.21484375 20.5703125 C-8.21218506 19.76343994 -8.20952637 18.95656738 -8.20678711 18.12524414 C-8.06315382 0.02926735 -8.06315382 0.02926735 0 0 Z " fill="#0C0A05" transform="translate(8.08984375,3.8671875)"/>
<path d="M0 0 C2.31 0.66 4.62 1.32 7 2 C7 2.66 7 3.32 7 4 C8.65 4.33 10.3 4.66 12 5 C12 6.32 12 7.64 12 9 C12.5775 9.28875 13.155 9.5775 13.75 9.875 C15.08398422 10.54199211 16.40442706 11.23966048 17.6875 12 C20.82815118 13.35811943 23.86282724 13.68592205 27.25 14.125 C28.51328125 14.29257812 29.7765625 14.46015625 31.078125 14.6328125 C32.04234375 14.75398438 33.0065625 14.87515625 34 15 C34.495 16.98 34.495 16.98 35 19 C34.071875 19.268125 33.14375 19.53625 32.1875 19.8125 C29.23759634 20.91148371 27.94384814 21.62418561 26 24 C25.67 22.68 25.34 21.36 25 20 C24.09636719 20 23.19273438 20 22.26171875 20 C15.84114583 20 9.42057292 20 3 20 C3 21.98 3 23.96 3 26 C1.68 25.67 0.36 25.34 -1 25 C-0.67 16.75 -0.34 8.5 0 0 Z " fill="#D49800" transform="translate(3,6)"/>
<path d="M0 0 C2.31 0.66 4.62 1.32 7 2 C7 2.66 7 3.32 7 4 C8.65 4.33 10.3 4.66 12 5 C12 6.32 12 7.64 12 9 C12.639375 9.2475 13.27875 9.495 13.9375 9.75 C16 11 16 11 17 15 C11.39 15 5.78 15 0 15 C0 10.05 0 5.1 0 0 Z " fill="#F5C345" transform="translate(3,6)"/>
<path d="M0 0 C1.98 0 3.96 0 6 0 C6.66 1.32 7.32 2.64 8 4 C8.33 2.68 8.66 1.36 9 0 C10.65 0 12.3 0 14 0 C13.39891424 5.65020618 11.92471317 10.66164461 10 16 C8.35 16 6.7 16 5 16 C3.35 10.72 1.7 5.44 0 0 Z " fill="#D1D1D1" transform="translate(6,27)"/>
<path d="M0 0 C1.3303125 0.4021875 1.3303125 0.4021875 2.6875 0.8125 C2.6875 2.7925 2.6875 4.7725 2.6875 6.8125 C1.0375 6.8125 -0.6125 6.8125 -2.3125 6.8125 C-2.3125 8.1325 -2.3125 9.4525 -2.3125 10.8125 C-0.9925 10.8125 0.3275 10.8125 1.6875 10.8125 C1.6875 12.7925 1.6875 14.7725 1.6875 16.8125 C-1.625 17.125 -1.625 17.125 -5.3125 16.8125 C-7.90929645 14.0481683 -8.27786728 12.05492905 -8.8125 8.3125 C-8.3125 4.8125 -8.3125 4.8125 -6.1875 1.8125 C-3.3125 -0.1875 -3.3125 -0.1875 0 0 Z " fill="#E4E4E4" transform="translate(38.3125,26.1875)"/>
<path d="M0 0 C1.65 0 3.3 0 5 0 C5 5.28 5 10.56 5 16 C3.35 16 1.7 16 0 16 C0 10.72 0 5.44 0 0 Z " fill="#CBCBCB" transform="translate(22,27)"/>
<path d="M0 0 C1.546875 0.0309375 1.546875 0.0309375 3.125 0.0625 C4.115 0.0625 5.105 0.0625 6.125 0.0625 C10.45833333 0.0625 14.79166667 0.0625 19.125 0.0625 C20.35602992 3.75558976 19.99675152 6.94300712 19.6875 10.75 C19.63529297 11.45189453 19.58308594 12.15378906 19.52929688 12.87695312 C19.39992135 14.60588054 19.26317469 16.33425355 19.125 18.0625 C18.795 18.0625 18.465 18.0625 18.125 18.0625 C18.125 12.7825 18.125 7.5025 18.125 2.0625 C16.475 2.0625 14.825 2.0625 13.125 2.0625 C12.465 2.7225 11.805 3.3825 11.125 4.0625 C11.125 3.4025 11.125 2.7425 11.125 2.0625 C9.475 2.0625 7.825 2.0625 6.125 2.0625 C5.795 4.0425 5.465 6.0225 5.125 8.0625 C3.125 5.0625 3.125 5.0625 3.125 2.0625 C1.475 2.3925 -0.175 2.7225 -1.875 3.0625 C-2.205 4.0525 -2.535 5.0425 -2.875 6.0625 C-3.205 6.0625 -3.535 6.0625 -3.875 6.0625 C-3.917721 4.39638095 -3.91563832 2.72867115 -3.875 1.0625 C-2.875 0.0625 -2.875 0.0625 0 0 Z " fill="#3C3522" transform="translate(8.875,24.9375)"/>
<path d="M0 0 C1.65 0 3.3 0 5 0 C5.33 0.99 5.66 1.98 6 3 C7.32 3 8.64 3 10 3 C10 4.98 10 6.96 10 9 C6.6875 9.3125 6.6875 9.3125 3 9 C0.22810842 5.78102913 0 4.3064427 0 0 Z " fill="#D1D1D1" transform="translate(30,34)"/>
<path d="M0 0 C5.75 -0.125 5.75 -0.125 8 1 C8 1.66 8 2.32 8 3 C-0.25 3 -8.5 3 -17 3 C-17 2.67 -17 2.34 -17 2 C-11.39 2 -5.78 2 0 2 C0 1.34 0 0.68 0 0 Z " fill="#E4A609" transform="translate(20,19)"/>
<path d="M0 0 C1.65 0 3.3 0 5 0 C4.67 2.31 4.34 4.62 4 7 C2.35 7 0.7 7 -1 7 C-0.67 4.69 -0.34 2.38 0 0 Z " fill="#F2F2F2" transform="translate(15,27)"/>
<path d="M0 0 C1.98 0 3.96 0 6 0 C6 2.31 6 4.62 6 7 C4.68 7 3.36 7 2 7 C1.34 4.69 0.68 2.38 0 0 Z " fill="#F8F8F8" transform="translate(6,27)"/>
<path d="M0 0 C1.32 0 2.64 0 4 0 C4 2.31 4 4.62 4 7 C2.68 7 1.36 7 0 7 C0 4.69 0 2.38 0 0 Z " fill="#FCFCFC" transform="translate(23,27)"/>
</svg>
