<?xml version="1.0" encoding="UTF-8"?>
<svg version="1.1" xmlns="http://www.w3.org/2000/svg" width="48" height="48">
<path d="M0 0 C2.14453125 0.921875 2.14453125 0.921875 4 3 C4.57109766 6.25969898 4.5049102 9.51024691 4.5 12.8125 C4.65849167 20.82696418 5.5133574 27.48853888 8.16015625 35.08984375 C9.25561396 38.88573209 9.8082195 42.383561 8 46 C6.72125 45.979375 5.4425 45.95875 4.125 45.9375 C0.73008624 45.93218715 -2.56454255 46.12047547 -5.9375 46.5 C-12.29550186 47.19432158 -18.78955903 47.78656521 -25 46 C-25.67561372 43.4604163 -26.34065828 40.91881165 -27 38.375 C-27.19078125 37.66214844 -27.3815625 36.94929688 -27.578125 36.21484375 C-28.96531968 30.81469305 -29.85173525 26.24140855 -27.8125 20.875 C-24.23937019 15.20727686 -20.26035602 13.47302495 -14 12 C-13.979375 11.13375 -13.95875 10.2675 -13.9375 9.375 C-12.15180705 2.94650538 -6.82329154 -1.36465831 0 0 Z " fill="#080408" transform="translate(34,1)"/>
<path d="M0 0 C0.99 0 1.98 0 3 0 C3 0.66 3 1.32 3 2 C3.66 2 4.32 2 5 2 C5 8.6 5 15.2 5 22 C2.69 22.66 0.38 23.32 -2 24 C-2.33 23.67 -2.66 23.34 -3 23 C-4.34015221 22.84417697 -5.68758903 22.74955858 -7.03515625 22.68359375 C-7.84404297 22.64169922 -8.65292969 22.59980469 -9.48632812 22.55664062 C-10.33646484 22.51732422 -11.18660156 22.47800781 -12.0625 22.4375 C-12.91650391 22.39431641 -13.77050781 22.35113281 -14.65039062 22.30664062 C-16.76672037 22.20023298 -18.88333813 22.09958269 -21 22 C-21 20.68 -21 19.36 -21 18 C-19.390625 16.55078125 -19.390625 16.55078125 -17.25 15.3125 C-16.55390625 14.89613281 -15.8578125 14.47976562 -15.140625 14.05078125 C-13 13 -13 13 -10.8125 12.515625 C-9.9153125 12.26039062 -9.9153125 12.26039062 -9 12 C-7.70339566 9.50965614 -7.70339566 9.50965614 -7 7 C-6.01 7 -5.02 7 -4 7 C-3.71125 6.21625 -3.4225 5.4325 -3.125 4.625 C-2 2 -2 2 0 0 Z " fill="#FA4DF6" transform="translate(30,3)"/>
<path d="M0 0 C3.66666667 0 7.33333333 0 11 0 C11 0.99 11 1.98 11 3 C11.66 3 12.32 3 13 3 C13 2.01 13 1.02 13 0 C14.65 0 16.3 0 18 0 C17.01 5.28 16.02 10.56 15 16 C13.35 16 11.7 16 10 16 C9.67 15.01 9.34 14.02 9 13 C8.67 13.99 8.34 14.98 8 16 C6.35 16 4.7 16 3 16 C-0.44419134 5.62642369 -0.44419134 5.62642369 0 0 Z " fill="#CECECE" transform="translate(8,27)"/>
<path d="M0 0 C2.31 0 4.62 0 7 0 C8.32 5.28 9.64 10.56 11 16 C9.02 16 7.04 16 5 16 C5 15.34 5 14.68 5 14 C4.01 14 3.02 14 2 14 C2 14.66 2 15.32 2 16 C0.02 16 -1.96 16 -4 16 C-2.98408579 10.53135543 -1.92908943 5.23609987 0 0 Z " fill="#C9C9C9" transform="translate(30,27)"/>
<path d="M0 0 C0.33 0 0.66 0 1 0 C1 5.94 1 11.88 1 18 C-0.98 18 -2.96 18 -5 18 C-5.33 19.98 -5.66 21.96 -6 24 C-6.66 24 -7.32 24 -8 24 C-8.33 24.99 -8.66 25.98 -9 27 C-10.125 20.25 -10.125 20.25 -9 18 C-10.65 18 -12.3 18 -14 18 C-14 18.99 -14 19.98 -14 21 C-14.66 21 -15.32 21 -16 21 C-16 20.01 -16 19.02 -16 18 C-17.32 18.33 -18.64 18.66 -20 19 C-20.33 20.65 -20.66 22.3 -21 24 C-21.33 24 -21.66 24 -22 24 C-22 22.02 -22 20.04 -22 18 C-23.65 18 -25.3 18 -27 18 C-27.33 18.66 -27.66 19.32 -28 20 C-28 19.01 -28 18.02 -28 17 C-25.72760856 15.86380428 -24.49217862 15.88413304 -21.97265625 15.90234375 C-20.78446289 15.90717773 -20.78446289 15.90717773 -19.57226562 15.91210938 C-18.74404297 15.92048828 -17.91582031 15.92886719 -17.0625 15.9375 C-16.23814453 15.94201172 -15.41378906 15.94652344 -14.56445312 15.95117188 C-13.03001478 15.95989736 -11.49558578 15.97067267 -9.96118164 15.98413086 C-8.3075001 15.99751183 -6.65373567 16 -5 16 C-3.35 16 -1.7 16 0 16 C0 10.72 0 5.44 0 0 Z " fill="#351C35" transform="translate(35,9)"/>
<path d="M0 0 C2.31 0 4.62 0 7 0 C7.33 2.64 7.66 5.28 8 8 C5.03 8 2.06 8 -1 8 C-0.67 5.36 -0.34 2.72 0 0 Z " fill="#F5F5F5" transform="translate(30,27)"/>
<path d="M0 0 C0.66 0 1.32 0 2 0 C2 0.66 2 1.32 2 2 C9.92 2 17.84 2 26 2 C26 2.66 26 3.32 26 4 C23.69 4.66 21.38 5.32 19 6 C18.67 5.67 18.34 5.34 18 5 C16.65984779 4.84417697 15.31241097 4.74955858 13.96484375 4.68359375 C12.75151367 4.62075195 12.75151367 4.62075195 11.51367188 4.55664062 C10.66353516 4.51732422 9.81339844 4.47800781 8.9375 4.4375 C8.08349609 4.39431641 7.22949219 4.35113281 6.34960938 4.30664062 C4.23327963 4.20023298 2.11666187 4.09958269 0 4 C0 2.68 0 1.36 0 0 Z " fill="#E91DE4" transform="translate(9,21)"/>
<path d="M0 0 C0.33 0 0.66 0 1 0 C1 5.94 1 11.88 1 18 C-0.98 18 -2.96 18 -5 18 C-5.33 19.98 -5.66 21.96 -6 24 C-6.66 24 -7.32 24 -8 24 C-8.33 24.99 -8.66 25.98 -9 27 C-10.32597623 20.61120543 -10.32597623 20.61120543 -9 18.125 C-7 17 -7 17 0 16 C0 10.72 0 5.44 0 0 Z " fill="#5C1C5A" transform="translate(35,9)"/>
<path d="M0 0 C1.32 0 2.64 0 4 0 C4 2.64 4 5.28 4 8 C2.35 8 0.7 8 -1 8 C-1.04241723 5.66705225 -1.04092937 3.33297433 -1 1 C-0.67 0.67 -0.34 0.34 0 0 Z " fill="#F2F2F2" transform="translate(15,27)"/>
<path d="M0 0 C1.65 0 3.3 0 5 0 C5 2.64 5 5.28 5 8 C3.68 8 2.36 8 1 8 C-0.35439668 5.29120665 -0.06501451 2.99066732 0 0 Z " fill="#EFEFEF" transform="translate(8,27)"/>
<path d="M0 0 C1.65 0 3.3 0 5 0 C4.67 2.31 4.34 4.62 4 7 C2.68 7.33 1.36 7.66 0 8 C0 5.36 0 2.72 0 0 Z " fill="#F9F9F9" transform="translate(21,27)"/>
<path d="M0 0 C0.99 0.33 1.98 0.66 3 1 C2.67 3.31 2.34 5.62 2 8 C1.34 8 0.68 8 0 8 C-0.33 8.66 -0.66 9.32 -1 10 C-2.46726798 6.18510326 -1.43336419 3.70988378 0 0 Z " fill="#2A1429" transform="translate(25,32)"/>
</svg>
